<svg width="83" height="83" viewBox="0 0 83 83" fill="none" xmlns="http://www.w3.org/2000/svg">
<path d="M28.1618 11.8574C24.624 11.8574 21.2311 13.2628 18.7295 15.7644C16.2279 18.266 14.8225 21.6589 14.8225 25.1967C14.8225 28.7345 16.2279 32.1274 18.7295 34.629C21.2311 37.1306 24.624 38.536 28.1618 38.536C31.6996 38.536 35.0925 37.1306 37.5941 34.629C40.0957 32.1274 41.5011 28.7345 41.5011 25.1967C41.5011 21.6589 40.0957 18.266 37.5941 15.7644C35.0925 13.2628 31.6996 11.8574 28.1618 11.8574ZM19.269 25.1967C19.269 24.0289 19.499 22.8725 19.9459 21.7936C20.3928 20.7146 21.0479 19.7343 21.8736 18.9085C22.6994 18.0827 23.6797 17.4277 24.7587 16.9808C25.8376 16.5339 26.994 16.3039 28.1618 16.3039C29.3297 16.3039 30.486 16.5339 31.565 16.9808C32.6439 17.4277 33.6243 18.0827 34.45 18.9085C35.2758 19.7343 35.9309 20.7146 36.3778 21.7936C36.8247 22.8725 37.0547 24.0289 37.0547 25.1967C37.0547 27.5552 36.1178 29.8172 34.45 31.4849C32.7823 33.1526 30.5204 34.0896 28.1618 34.0896C25.8033 34.0896 23.5414 33.1526 21.8736 31.4849C20.2059 29.8172 19.269 27.5552 19.269 25.1967ZM59.2868 17.786C57.9244 17.786 56.5752 18.0544 55.3165 18.5757C54.0577 19.0971 52.914 19.8614 51.9506 20.8248C50.9872 21.7882 50.223 22.9319 49.7016 24.1907C49.1802 25.4494 48.9118 26.7985 48.9118 28.161C48.9118 29.5235 49.1802 30.8726 49.7016 32.1313C50.223 33.3901 50.9872 34.5338 51.9506 35.4972C52.914 36.4606 54.0577 37.2249 55.3165 37.7462C56.5752 38.2676 57.9244 38.536 59.2868 38.536C62.0384 38.536 64.6774 37.4429 66.6231 35.4972C68.5688 33.5515 69.6618 30.9126 69.6618 28.161C69.6618 25.4094 68.5688 22.7705 66.6231 20.8248C64.6774 18.8791 62.0384 17.786 59.2868 17.786ZM53.3583 28.161C53.3583 26.5886 53.9829 25.0807 55.0947 23.9689C56.2065 22.857 57.7145 22.2324 59.2868 22.2324C60.8592 22.2324 62.3671 22.857 63.479 23.9689C64.5908 25.0807 65.2154 26.5886 65.2154 28.161C65.2154 29.7333 64.5908 31.2413 63.479 32.3531C62.3671 33.4649 60.8592 34.0896 59.2868 34.0896C57.7145 34.0896 56.2065 33.4649 55.0947 32.3531C53.9829 31.2413 53.3583 29.7333 53.3583 28.161ZM12.5993 44.4646C10.8304 44.4646 9.13398 45.1673 7.88318 46.4181C6.63238 47.6689 5.92969 49.3653 5.92969 51.1342V52.7082C5.93329 52.9481 5.95011 53.1876 5.98008 53.4256C6.03047 53.8791 6.12533 54.5016 6.30615 55.2397C6.79792 57.1857 7.67152 59.0145 8.87619 60.6199C11.882 64.6306 17.6149 68.1789 28.1618 68.1789C32.7002 68.1789 36.3492 67.5208 39.269 66.4536C38.8822 64.9817 38.6478 63.4738 38.5694 61.9538C36.0913 63.0062 32.7298 63.7324 28.1618 63.7324C18.6998 63.7324 14.4283 60.611 12.4333 57.9521C11.5846 56.8211 10.9698 55.5322 10.6251 54.1607C10.5006 53.6667 10.4183 53.1629 10.3791 52.6549L10.3761 52.6015V51.1342C10.3761 50.5446 10.6103 49.9791 11.0273 49.5622C11.4442 49.1452 12.0097 48.911 12.5993 48.911H41.9606C42.9373 47.3655 44.1001 45.9459 45.4229 44.6839C44.8684 44.5382 44.2976 44.4645 43.7243 44.4646H12.5993ZM80.0368 60.7681C80.0368 65.8783 78.0068 70.7791 74.3934 74.3926C70.78 78.006 65.8791 80.036 60.769 80.036C55.6588 80.036 50.758 78.006 47.1445 74.3926C43.5311 70.7791 41.5011 65.8783 41.5011 60.7681C41.5011 55.658 43.5311 50.7571 47.1445 47.1437C50.758 43.5303 55.6588 41.5003 60.769 41.5003C65.8791 41.5003 70.78 43.5303 74.3934 47.1437C78.0068 50.7571 80.0368 55.658 80.0368 60.7681ZM62.2511 48.911C62.2511 48.5179 62.095 48.1409 61.817 47.863C61.5391 47.585 61.1621 47.4289 60.769 47.4289C60.3759 47.4289 59.9989 47.585 59.7209 47.863C59.443 48.1409 59.2868 48.5179 59.2868 48.911V59.286H48.9118C48.5187 59.286 48.1418 59.4422 47.8638 59.7201C47.5858 59.9981 47.4297 60.375 47.4297 60.7681C47.4297 61.1612 47.5858 61.5382 47.8638 61.8162C48.1418 62.0941 48.5187 62.2503 48.9118 62.2503H59.2868V72.6253C59.2868 73.0184 59.443 73.3954 59.7209 73.6733C59.9989 73.9513 60.3759 74.1074 60.769 74.1074C61.1621 74.1074 61.5391 73.9513 61.817 73.6733C62.095 73.3954 62.2511 73.0184 62.2511 72.6253V62.2503H72.6261C73.0192 62.2503 73.3962 62.0941 73.6741 61.8162C73.9521 61.5382 74.1083 61.1612 74.1083 60.7681C74.1083 60.375 73.9521 59.9981 73.6741 59.7201C73.3962 59.4422 73.0192 59.286 72.6261 59.286H62.2511V48.911Z" fill="black" fill-opacity="0.7"/>
</svg>
