<svg width="18" height="18" viewBox="0 0 18 18" fill="none" xmlns="http://www.w3.org/2000/svg">
<path fill-rule="evenodd" clip-rule="evenodd" d="M17 11V3C17 2.46957 16.7893 1.96086 16.4142 1.58579C16.0391 1.21071 15.5304 1 15 1H7C6.46957 1 5.96086 1.21071 5.58579 1.58579C5.21071 1.96086 5 2.46957 5 3V11C5 11.5304 5.21071 12.0391 5.58579 12.4142C5.96086 12.7893 6.46957 13 7 13H15C15.5304 13 16.0391 12.7893 16.4142 12.4142C16.7893 12.0391 17 11.5304 17 11Z" stroke="black" stroke-opacity="0.7" stroke-linecap="round" stroke-linejoin="round"/>
<path d="M5 5.003H3C2.46957 5.003 1.96086 5.21371 1.58579 5.58879C1.21071 5.96386 1 6.47257 1 7.003V15C1 15.5304 1.21071 16.0391 1.58579 16.4142C1.96086 16.7893 2.46957 17 3 17H3.003L11.003 16.986C11.5329 16.9852 12.0409 16.7741 12.4153 16.3992C12.7897 16.0242 13 15.5159 13 14.986V13.003M11 4V10M14 7H8" stroke="black" stroke-opacity="0.7" stroke-linecap="round" stroke-linejoin="round"/>
</svg>
