<svg width="18" height="18" viewBox="0 0 18 18" fill="none" xmlns="http://www.w3.org/2000/svg">
<path d="M0.5 17.8431H17.4C17.5326 17.8431 17.6598 17.7904 17.7536 17.6966C17.8473 17.6028 17.9 17.4757 17.9 17.3431C17.9 17.2104 17.8473 17.0833 17.7536 16.9895C17.6598 16.8957 17.5326 16.8431 17.4 16.8431H0.5C0.367392 16.8431 0.240215 16.8957 0.146446 16.9895C0.0526783 17.0833 0 17.2104 0 17.3431C0 17.4757 0.0526783 17.6028 0.146446 17.6966C0.240215 17.7904 0.367392 17.8431 0.5 17.8431ZM6.662 14.0851C7.0844 13.9668 7.46981 13.7432 7.782 13.4351L17.322 3.89505C17.6487 3.56706 17.8321 3.12299 17.8321 2.66005C17.8321 2.19711 17.6487 1.75304 17.322 1.42505L16.382 0.49505C16.0493 0.177305 15.607 0 15.147 0C14.687 0 14.2447 0.177305 13.912 0.49505L4.372 10.0251C4.06334 10.3352 3.84249 10.7217 3.732 11.1451L2.992 13.9051C2.95689 14.0311 2.95599 14.1643 2.98938 14.2908C3.02277 14.4174 3.08926 14.5327 3.182 14.625C3.32355 14.7642 3.51352 14.8431 3.712 14.8451L6.662 14.0851ZM7.072 12.725C6.88765 12.9127 6.65624 13.0474 6.402 13.115L5.432 13.375L4.432 12.3751L4.692 11.4051C4.76195 11.1518 4.89631 10.9209 5.082 10.7351L5.462 10.3651L7.452 12.3551L7.072 12.725ZM8.162 11.6451L6.172 9.65505L12.902 2.92505L14.892 4.91505L8.162 11.6451ZM16.612 3.19505L15.602 4.20505L13.612 2.21505L14.622 1.19505C14.6915 1.12527 14.7741 1.06989 14.865 1.03211C14.956 0.994329 15.0535 0.97488 15.152 0.97488C15.2505 0.97488 15.348 0.994329 15.439 1.03211C15.5299 1.06989 15.6125 1.12527 15.682 1.19505L16.612 2.13505C16.7515 2.27619 16.8297 2.46662 16.8297 2.66505C16.8297 2.86348 16.7515 3.05391 16.612 3.19505Z" fill="black" fill-opacity="0.7"/>
</svg>
