<svg width="38" height="39" viewBox="0 0 38 39" fill="none" xmlns="http://www.w3.org/2000/svg">
<circle cx="19" cy="19.002" r="19" fill="white"/>
<path d="M27 13.002H11V11.002H27V13.002ZM22.69 21.002H21V22.692C20.37 23.642 20 24.772 20 26.002C20 26.342 20.04 26.672 20.09 27.002H11V21.002H10V19.002L11 14.002H27L28 19.002V20.352C27.37 20.132 26.7 20.002 26 20.002C24.77 20.002 23.64 20.372 22.69 21.002ZM19 21.002H13V25.002H19V21.002ZM28.34 22.842L24.75 26.432L23.16 24.842L22 26.002L24.75 29.002L29.5 24.252L28.34 22.842Z" fill="black"/>
</svg>
