<svg width="38" height="39" viewBox="0 0 38 39" fill="none" xmlns="http://www.w3.org/2000/svg">
<circle cx="19" cy="19.002" r="19" fill="white"/>
<path d="M29 9H9V15H10V26C10 26.5304 10.2107 27.0391 10.5858 27.4142C10.9609 27.7893 11.4696 28 12 28H26C26.5304 28 27.0391 27.7893 27.4142 27.4142C27.7893 27.0391 28 26.5304 28 26V15H29V9ZM11 11H27V13H11V11ZM26 26H12V15H26V26ZM16 17H22C22 17.5304 21.7893 18.0391 21.4142 18.4142C21.0391 18.7893 20.5304 19 20 19H18C17.4696 19 16.9609 18.7893 16.5858 18.4142C16.2107 18.0391 16 17.5304 16 17Z" fill="black"/>
</svg>
