<svg width="14" height="15" viewBox="0 0 14 15" fill="none" xmlns="http://www.w3.org/2000/svg">
<path d="M6.83333 1.00195C10.0551 1.00195 12.6667 3.61354 12.6667 6.83529C12.6667 10.057 10.0551 12.6686 6.83333 12.6686C3.61158 12.6686 1 10.057 1 6.83529C1 3.61354 3.61158 1.00195 6.83333 1.00195ZM6.83333 2.16862C5.59566 2.16862 4.40867 2.66029 3.5335 3.53545C2.65833 4.41062 2.16667 5.59761 2.16667 6.83529C2.16667 8.07296 2.65833 9.25995 3.5335 10.1351C4.40867 11.0103 5.59566 11.502 6.83333 11.502C8.07101 11.502 9.258 11.0103 10.1332 10.1351C11.0083 9.25995 11.5 8.07296 11.5 6.83529C11.5 5.59761 11.0083 4.41062 10.1332 3.53545C9.258 2.66029 8.07101 2.16862 6.83333 2.16862ZM6.8275 5.66862C7.153 5.66862 7.41667 5.93229 7.41667 6.25779V9.24679C7.52787 9.311 7.61477 9.4101 7.66391 9.52874C7.71305 9.64737 7.72167 9.7789 7.68843 9.90293C7.6552 10.027 7.58197 10.1366 7.48009 10.2147C7.37822 10.2929 7.25341 10.3353 7.125 10.3353H6.83917C6.7618 10.3353 6.68518 10.32 6.6137 10.2904C6.54222 10.2608 6.47727 10.2174 6.42256 10.1627C6.36785 10.108 6.32446 10.0431 6.29485 9.97159C6.26524 9.9001 6.25 9.82349 6.25 9.74612V6.83529C6.09529 6.83529 5.94692 6.77383 5.83752 6.66443C5.72813 6.55504 5.66667 6.40666 5.66667 6.25195C5.66667 6.09724 5.72813 5.94887 5.83752 5.83947C5.94692 5.73008 6.09529 5.66862 6.25 5.66862H6.8275ZM6.83333 3.91862C6.98804 3.91862 7.13642 3.98008 7.24581 4.08947C7.35521 4.19887 7.41667 4.34724 7.41667 4.50195C7.41667 4.65666 7.35521 4.80504 7.24581 4.91443C7.13642 5.02383 6.98804 5.08529 6.83333 5.08529C6.67862 5.08529 6.53025 5.02383 6.42086 4.91443C6.31146 4.80504 6.25 4.65666 6.25 4.50195C6.25 4.34724 6.31146 4.19887 6.42086 4.08947C6.53025 3.98008 6.67862 3.91862 6.83333 3.91862Z" fill="white"/>
</svg>
