<svg width="38" height="39" viewBox="0 0 38 39" fill="none" xmlns="http://www.w3.org/2000/svg">
<circle cx="19" cy="19.002" r="19" fill="white"/>
<path d="M14 25C15.1 25 16 25.9 16 27C16 28.1 15.1 29 14 29C12.9 29 12 28.1 12 27C12 25.9 12.9 25 14 25ZM24 25C25.1 25 26 25.9 26 27C26 28.1 25.1 29 24 29C22.9 29 22 28.1 22 27C22 25.9 22.9 25 24 25ZM14.2 21.8C14.2 21.9 14.3 22 14.4 22H26V24H14C12.9 24 12 23.1 12 22C12 21.6 12.1 21.3 12.2 21L13.5 18.6L10 11H8V9H11.3L15.6 18H22.6L26.5 11L28.2 12L24.3 19C24 19.6 23.3 20 22.6 20H15.1L14.2 21.6V21.8ZM16.4 8C17.2 8 17.8 8.6 17.8 9.4C17.8 10.2 17.2 10.8 16.4 10.8C15.6 10.8 15 10.2 15 9.4C15 8.6 15.7 8 16.4 8ZM21.6 16C20.8 16 20.2 15.4 20.2 14.6C20.2 13.8 20.8 13.2 21.6 13.2C22.4 13.2 23 13.8 23 14.6C23 15.4 22.3 16 21.6 16ZM16.2 16L15 14.8L21.8 8L23 9.2L16.2 16Z" fill="black"/>
</svg>
