<svg width="24" height="24" viewBox="0 0 24 24" fill="none" xmlns="http://www.w3.org/2000/svg">
<path d="M12.0002 4.00015C11.7349 4.00015 11.4806 4.10551 11.293 4.29304C11.1055 4.48058 11.0002 4.73493 11.0002 5.00015C11.0002 6.69215 8.95415 7.54015 7.75715 6.34315C7.6649 6.24764 7.55456 6.17146 7.43256 6.11905C7.31055 6.06664 7.17933 6.03905 7.04655 6.0379C6.91377 6.03675 6.78209 6.06205 6.6592 6.11233C6.5363 6.16261 6.42465 6.23686 6.33076 6.33076C6.23686 6.42465 6.16261 6.5363 6.11233 6.6592C6.06205 6.78209 6.03675 6.91377 6.0379 7.04655C6.03905 7.17933 6.06664 7.31055 6.11905 7.43256C6.17146 7.55456 6.24764 7.6649 6.34315 7.75715C7.54015 8.95415 6.69315 11.0002 5.00015 11.0002C4.73493 11.0002 4.48058 11.1055 4.29304 11.293C4.10551 11.4806 4.00015 11.7349 4.00015 12.0002C4.00015 12.2654 4.10551 12.5197 4.29304 12.7073C4.48058 12.8948 4.73493 13.0002 5.00015 13.0002C6.69215 13.0002 7.54015 15.0462 6.34315 16.2432C6.16099 16.4318 6.0602 16.6844 6.06248 16.9466C6.06475 17.2087 6.16992 17.4596 6.35533 17.645C6.54074 17.8304 6.79155 17.9355 7.05375 17.9378C7.31595 17.9401 7.56855 17.8393 7.75715 17.6572C8.95415 16.4601 11.0002 17.3072 11.0002 19.0002C11.0002 19.2654 11.1055 19.5197 11.293 19.7073C11.4806 19.8948 11.7349 20.0002 12.0002 20.0002C12.2654 20.0002 12.5197 19.8948 12.7073 19.7073C12.8948 19.5197 13.0002 19.2654 13.0002 19.0002C13.0002 17.3082 15.0462 16.4601 16.2432 17.6572C16.3354 17.7527 16.4457 17.8288 16.5677 17.8813C16.6898 17.9337 16.821 17.9612 16.9537 17.9624C17.0865 17.9636 17.2182 17.9383 17.3411 17.888C17.464 17.8377 17.5757 17.7634 17.6695 17.6695C17.7634 17.5757 17.8377 17.464 17.888 17.3411C17.9383 17.2182 17.9636 17.0865 17.9624 16.9537C17.9612 16.821 17.9337 16.6898 17.8813 16.5677C17.8288 16.4457 17.7527 16.3354 17.6572 16.2432C16.4601 15.0462 17.3072 13.0002 19.0002 13.0002C19.2654 13.0002 19.5197 12.8948 19.7073 12.7073C19.8948 12.5197 20.0002 12.2654 20.0002 12.0002C20.0002 11.7349 19.8948 11.4806 19.7073 11.293C19.5197 11.1055 19.2654 11.0002 19.0002 11.0002C17.3082 11.0002 16.4601 8.95415 17.6572 7.75715C17.8393 7.56855 17.9401 7.31595 17.9378 7.05375C17.9355 6.79155 17.8304 6.54074 17.645 6.35533C17.4596 6.16992 17.2087 6.06475 16.9466 6.06248C16.6844 6.0602 16.4318 6.16099 16.2432 6.34315C15.0462 7.54015 13.0002 6.69315 13.0002 5.00015C13.0002 4.73493 12.8948 4.48058 12.7073 4.29304C12.5197 4.10551 12.2654 4.00015 12.0002 4.00015ZM9.00815 4.77715C9.06345 4.02142 9.40269 3.31462 9.9577 2.79873C10.5127 2.28284 11.2424 1.99609 12.0002 1.99609C12.7579 1.99609 13.4876 2.28284 14.0426 2.79873C14.5976 3.31462 14.9368 4.02142 14.9922 4.77715C15.566 4.28433 16.3048 4.02646 17.0606 4.05516C17.8164 4.08386 18.5336 4.39702 19.0683 4.93193C19.6031 5.46684 19.9161 6.18402 19.9446 6.93988C19.9732 7.69573 19.7151 8.43446 19.2222 9.00815C19.9779 9.06333 20.6848 9.40244 21.2007 9.95737C21.7167 10.5123 22.0036 11.2419 22.0037 11.9997C22.0038 12.7574 21.7172 13.4872 21.2014 14.0423C20.6856 14.5974 19.9789 14.9367 19.2232 14.9922C19.716 15.566 19.9738 16.3048 19.9451 17.0606C19.9164 17.8164 19.6033 18.5336 19.0684 19.0683C18.5335 19.6031 17.8163 19.9161 17.0604 19.9446C16.3046 19.9732 15.5658 19.7151 14.9922 19.2222C14.9368 19.9779 14.5976 20.6847 14.0426 21.2006C13.4876 21.7165 12.7579 22.0032 12.0002 22.0032C11.2424 22.0032 10.5127 21.7165 9.9577 21.2006C9.40269 20.6847 9.06345 19.9779 9.00815 19.2222C8.43446 19.7151 7.69573 19.9732 6.93988 19.9446C6.18402 19.9161 5.46684 19.6031 4.93193 19.0683C4.39702 18.5336 4.08386 17.8164 4.05516 17.0606C4.02646 16.3048 4.28433 15.566 4.77715 14.9922C4.02142 14.9368 3.31462 14.5976 2.79873 14.0426C2.28284 13.4876 1.99609 12.7579 1.99609 12.0002C1.99609 11.2424 2.28284 10.5127 2.79873 9.9577C3.31462 9.40269 4.02142 9.06345 4.77715 9.00815C4.28283 8.43456 4.0237 7.69526 4.05174 6.93857C4.07979 6.18188 4.39294 5.46379 4.92836 4.92836C5.46379 4.39294 6.18188 4.07979 6.93857 4.05174C7.69526 4.0237 8.43456 4.28283 9.00815 4.77715Z" fill="black"/>
<path d="M11.9997 10.0003C11.4692 10.0003 10.9605 10.211 10.5855 10.5861C10.2104 10.9612 9.99968 11.4699 9.99968 12.0003C9.99968 12.5308 10.2104 13.0395 10.5855 13.4145C10.9605 13.7896 11.4692 14.0003 11.9997 14.0003C12.5301 14.0003 13.0388 13.7896 13.4139 13.4145C13.789 13.0395 13.9997 12.5308 13.9997 12.0003C13.9997 11.4699 13.789 10.9612 13.4139 10.5861C13.0388 10.211 12.5301 10.0003 11.9997 10.0003ZM9.17168 9.17232C9.54066 8.79028 9.98204 8.48556 10.4701 8.27592C10.9581 8.06628 11.483 7.95594 12.0141 7.95132C12.5452 7.94671 13.0719 8.04791 13.5635 8.24904C14.0551 8.45016 14.5017 8.74717 14.8773 9.12274C15.2528 9.49832 15.5498 9.94492 15.751 10.4365C15.9521 10.9281 16.0533 11.4548 16.0487 11.9859C16.0441 12.517 15.9337 13.0419 15.7241 13.5299C15.5144 14.018 15.2097 14.4593 14.8277 14.8283C14.0733 15.557 13.0629 15.9601 12.0141 15.951C10.9653 15.9419 9.96203 15.5212 9.2204 14.7796C8.47877 14.038 8.05809 13.0347 8.04898 11.9859C8.03987 10.9371 8.44304 9.92673 9.17168 9.17232Z" fill="black"/>
</svg>
