<svg width="16" height="16" viewBox="0 0 16 16" fill="none" xmlns="http://www.w3.org/2000/svg">
<path d="M14.3525 0.767846C14.1091 0.524412 13.8202 0.331307 13.5022 0.199558C13.1841 0.0678103 12.8433 0 12.499 0C12.1548 0 11.8139 0.0678103 11.4959 0.199558C11.1779 0.331307 10.8889 0.524412 10.6455 0.767846L5.14553 6.26785C5.08132 6.33179 5.03569 6.41198 5.01353 6.49985L4.01353 10.4998C3.99268 10.5836 3.99385 10.6712 4.01692 10.7544C4.03998 10.8375 4.08416 10.9132 4.14516 10.9742C4.20615 11.0352 4.2819 11.0794 4.36502 11.1025C4.44814 11.1255 4.53582 11.1267 4.61953 11.1058L8.61953 10.1058C8.70764 10.0841 8.78819 10.0388 8.85253 9.97485L14.3525 4.47485C14.596 4.23146 14.7891 3.9425 14.9208 3.62447C15.0526 3.30645 15.1204 2.96558 15.1204 2.62135C15.1204 2.27711 15.0526 1.93625 14.9208 1.61822C14.7891 1.30019 14.596 1.01124 14.3525 0.767846ZM11.3525 1.47485C11.6566 1.17078 12.069 0.99995 12.499 0.99995C12.929 0.99995 13.3415 1.17078 13.6455 1.47485C13.9496 1.77892 14.1204 2.19133 14.1204 2.62135C14.1204 3.05137 13.9496 3.46378 13.6455 3.76785L8.24253 9.16985L5.18553 9.93385L5.94953 6.87685L11.3525 1.47485ZM6.99853 2.12085C7.27853 2.12085 7.55253 2.14085 7.82153 2.17685L8.67553 1.32285C7.19107 0.956889 5.62762 1.087 4.22407 1.69331C2.82053 2.29961 1.65409 3.34876 0.902975 4.68044C0.151865 6.01212 -0.142601 7.5531 0.0645727 9.0679C0.271746 10.5827 0.969165 11.988 2.05026 13.0691C3.13136 14.1502 4.53668 14.8476 6.05148 15.0548C7.56628 15.262 9.10725 14.9675 10.4389 14.2164C11.7706 13.4653 12.8198 12.2988 13.4261 10.8953C14.0324 9.49175 14.1625 7.9283 13.7965 6.44385L12.9425 7.29785C13.1101 8.50813 12.9042 9.74074 12.3524 10.8309C11.8005 11.921 10.929 12.8166 9.85433 13.398C8.77969 13.9794 7.55316 14.2189 6.33875 14.0844C5.12434 13.9499 3.97994 13.4478 3.05857 12.6453C2.1372 11.8429 1.48279 10.7782 1.18284 9.59378C0.882895 8.40933 0.951709 7.16154 1.38008 6.01726C1.80846 4.87297 2.57597 3.88675 3.57999 3.19045C4.58402 2.49416 5.77669 2.12099 6.99853 2.12085Z" fill="black" fill-opacity="0.7"/>
</svg>
