<svg width="393" height="395" viewBox="0 0 393 395" fill="none" xmlns="http://www.w3.org/2000/svg">
<path d="M265.257 0H126.888C105.368 0 87.9219 17.4165 87.9219 38.9008V354.556C87.9219 376.041 105.368 393.457 126.888 393.457H265.257C286.778 393.457 304.224 376.041 304.224 354.556V38.9008C304.224 17.4165 286.778 0 265.257 0Z" fill="black"/>
<path d="M300.574 38.9033V354.557C300.563 363.905 296.838 372.866 290.217 379.476C283.596 386.086 274.619 389.805 265.255 389.815H126.889C117.525 389.805 108.548 386.086 101.927 379.476C95.3056 372.866 91.5811 363.905 91.5703 354.557V38.9033C91.5812 29.5554 95.3056 20.5935 101.927 13.9836C108.548 7.37359 117.525 3.65535 126.889 3.64453H144.982V9.88421C144.982 12.709 146.107 15.4181 148.107 17.4155C150.108 19.413 152.822 20.5352 155.651 20.5354H236.493C239.322 20.5352 242.036 19.413 244.037 17.4155C246.037 15.4181 247.161 12.709 247.162 9.88421V3.64453H265.255C274.619 3.65535 283.596 7.37359 290.217 13.9836C296.838 20.5935 300.563 29.5554 300.574 38.9033Z" fill="white"/>
<path d="M86.9274 79.8179C86.2238 79.8171 85.5492 79.5377 85.0517 79.041C84.5541 78.5443 84.2742 77.8708 84.2734 77.1684V71.8693C84.2734 71.1666 84.5531 70.4926 85.0508 69.9958C85.5485 69.4989 86.2236 69.2197 86.9274 69.2197C87.6313 69.2197 88.3064 69.4989 88.8041 69.9958C89.3018 70.4926 89.5815 71.1666 89.5815 71.8693V77.1684C89.5807 77.8708 89.3008 78.5443 88.8032 79.041C88.3057 79.5377 87.6311 79.8171 86.9274 79.8179Z" fill="black"/>
<path d="M86.9274 106.989C86.2238 106.989 85.5492 106.709 85.0517 106.212C84.5541 105.716 84.2742 105.042 84.2734 104.34V89.7531C84.2734 89.0504 84.5531 88.3764 85.0508 87.8795C85.5485 87.3827 86.2236 87.1035 86.9274 87.1035C87.6313 87.1035 88.3064 87.3827 88.8041 87.8795C89.3018 88.3764 89.5815 89.0504 89.5815 89.7531V104.34C89.5807 105.042 89.3008 105.716 88.8032 106.212C88.3057 106.709 87.6311 106.989 86.9274 106.989Z" fill="black"/>
<path d="M86.9274 128.834C86.2238 128.833 85.5492 128.554 85.0517 128.057C84.5541 127.56 84.2742 126.887 84.2734 126.185V111.598C84.2734 110.895 84.5531 110.221 85.0508 109.724C85.5485 109.227 86.2236 108.948 86.9274 108.948C87.6313 108.948 88.3064 109.227 88.8041 109.724C89.3018 110.221 89.5815 110.895 89.5815 111.598V126.185C89.5807 126.887 89.3008 127.56 88.8032 128.057C88.3057 128.554 87.6311 128.833 86.9274 128.834Z" fill="black"/>
<path d="M304.556 116.911C303.853 116.91 303.178 116.631 302.681 116.134C302.183 115.637 301.903 114.964 301.902 114.261V78.6691C301.902 77.9664 302.182 77.2924 302.68 76.7956C303.177 76.2987 303.852 76.0195 304.556 76.0195C305.26 76.0195 305.935 76.2987 306.433 76.7956C306.931 77.2924 307.21 77.9664 307.21 78.6691V114.261C307.21 114.964 306.93 115.637 306.432 116.134C305.935 116.631 305.26 116.91 304.556 116.911Z" fill="black"/>
<path d="M201.774 12.1518H181.206C180.766 12.1518 180.344 11.9773 180.033 11.6667C179.722 11.3562 179.547 10.935 179.547 10.4958C179.547 10.0566 179.722 9.63542 180.033 9.32487C180.344 9.01431 180.766 8.83984 181.206 8.83984H201.774C202.214 8.83984 202.636 9.01431 202.947 9.32487C203.258 9.63542 203.433 10.0566 203.433 10.4958C203.433 10.935 203.258 11.3562 202.947 11.6667C202.636 11.9773 202.214 12.1518 201.774 12.1518Z" fill="white"/>
<path d="M212.39 11.8204C213.122 11.8204 213.717 11.2273 213.717 10.4957C213.717 9.76402 213.122 9.1709 212.39 9.1709C211.657 9.1709 211.062 9.76402 211.062 10.4957C211.062 11.2273 211.657 11.8204 212.39 11.8204Z" fill="white"/>
<path d="M137.076 19.2576H119.161C118.281 19.2576 117.438 18.9087 116.815 18.2876C116.193 17.6665 115.844 16.8241 115.844 15.9457C115.844 15.0673 116.193 14.2249 116.815 13.6038C117.438 12.9827 118.281 12.6338 119.161 12.6338H137.076C137.956 12.6338 138.8 12.9827 139.422 13.6038C140.044 14.2249 140.393 15.0673 140.393 15.9457C140.393 16.8241 140.044 17.6665 139.422 18.2876C138.8 18.9087 137.956 19.2576 137.076 19.2576Z" fill="black"/>
<path d="M254.517 18.9263C256.166 18.9263 257.503 17.5918 257.503 15.9456C257.503 14.2994 256.166 12.9648 254.517 12.9648C252.868 12.9648 251.531 14.2994 251.531 15.9456C251.531 17.5918 252.868 18.9263 254.517 18.9263Z" fill="black"/>
<path d="M263.806 18.9263C265.455 18.9263 266.792 17.5918 266.792 15.9456C266.792 14.2994 265.455 12.9648 263.806 12.9648C262.157 12.9648 260.82 14.2994 260.82 15.9456C260.82 17.5918 262.157 18.9263 263.806 18.9263Z" fill="black"/>
<path d="M273.095 18.9263C274.744 18.9263 276.081 17.5918 276.081 15.9456C276.081 14.2994 274.744 12.9648 273.095 12.9648C271.446 12.9648 270.109 14.2994 270.109 15.9456C270.109 17.5918 271.446 18.9263 273.095 18.9263Z" fill="black"/>
<path d="M252.429 65.5479H139.833C137.652 65.5508 135.561 66.4172 134.019 67.9569C132.476 69.4966 131.608 71.584 131.605 73.7614V146.829C131.608 149.007 132.476 151.094 134.019 152.634C135.561 154.173 137.652 155.04 139.833 155.043H252.429C254.611 155.041 256.702 154.175 258.245 152.635C259.787 151.095 260.655 149.007 260.657 146.829V73.7614C260.655 71.5836 259.787 69.4956 258.245 67.9556C256.702 66.4157 254.611 65.5497 252.429 65.5479Z" fill="#F2F2F2"/>
<path d="M217.179 96.7407C207.004 114.701 195.775 132.046 183.552 148.685H165.895C177.46 134.619 189.034 120.553 200.617 106.487C203.939 102.437 207.546 98.1936 212.53 96.5479L217.179 96.7407Z" fill="black"/>
<path d="M193.713 93.8606C191.872 95.7764 190.107 97.7693 188.446 99.8394C184.788 104.237 181.182 108.672 177.563 113.095C175.309 115.847 173.055 118.598 170.827 121.35C170.12 120.896 169.448 120.389 168.818 119.833C165.259 116.749 163.052 112.397 162.669 107.708C162.286 103.019 163.758 98.367 166.769 94.7486C169.781 91.1302 174.092 88.8333 178.779 88.3501C183.467 87.8669 188.157 89.2358 191.846 92.1634C192.511 92.681 193.135 93.2484 193.713 93.8606Z" fill="black" fill-opacity="0.7"/>
<path d="M260.657 91.7716V94.441L259.463 94.0038L242.656 87.8701C237.182 85.8764 231.722 83.5978 226.069 82.1604C221.151 80.7558 215.928 80.8226 211.047 82.3525C206.697 83.9593 202.716 86.4263 199.343 89.6056C197.85 90.9833 196.404 92.3942 195.004 93.8581C194.546 94.3417 194.088 94.8252 193.637 95.3087C192.283 96.7792 190.976 98.2829 189.735 99.8395C186.079 104.238 182.47 108.676 178.854 113.094C176.598 115.849 174.342 118.598 172.113 121.347C164.668 130.442 157.268 139.554 149.912 148.684C148.921 148.673 147.935 148.548 146.973 148.313C154.477 139.006 162.016 129.724 169.591 120.466C169.764 120.254 169.936 120.042 170.109 119.83C170.998 118.724 171.907 117.611 172.809 116.505C176.585 111.888 180.362 107.276 184.142 102.668C186.889 99.3162 189.616 95.9512 192.575 92.7718C192.754 92.5665 192.94 92.3677 193.132 92.1624C193.418 91.8577 193.703 91.5596 193.995 91.2483C200.424 84.6178 208.446 78.7557 218.054 78.5967C223.707 78.5106 229.167 80.2991 234.422 82.1869C240.082 84.2337 245.722 86.3136 251.375 88.3802L260.657 91.7716Z" fill="black"/>
<path d="M263.305 316.367H128.84C126.659 316.365 124.568 315.499 123.026 313.959C121.483 312.419 120.616 310.332 120.613 308.154V290.063C120.616 287.885 121.483 285.798 123.026 284.258C124.568 282.718 126.659 281.852 128.84 281.85H263.305C265.486 281.852 267.577 282.718 269.119 284.258C270.661 285.798 271.529 287.885 271.532 290.063V308.154C271.529 310.332 270.661 312.419 269.119 313.959C267.577 315.499 265.486 316.365 263.305 316.367Z" fill="#F2F2F2"/>
<path d="M263.305 223.634H128.84C126.659 223.631 124.568 222.765 123.026 221.226C121.483 219.686 120.616 217.598 120.613 215.421V197.329C120.616 195.152 121.483 193.064 123.026 191.524C124.568 189.985 126.659 189.119 128.84 189.116H263.305C265.486 189.119 267.577 189.985 269.119 191.524C270.661 193.064 271.529 195.152 271.532 197.329V215.421C271.529 217.598 270.661 219.686 269.119 221.226C267.577 222.765 265.486 223.631 263.305 223.634Z" fill="#F2F2F2"/>
<path d="M263.305 270.001H128.84C126.659 269.999 124.568 269.132 123.026 267.593C121.483 266.053 120.616 263.965 120.613 261.788V243.696C120.616 241.519 121.483 239.431 123.026 237.892C124.568 236.352 126.659 235.486 128.84 235.483H263.305C265.486 235.486 267.577 236.352 269.119 237.892C270.661 239.431 271.529 241.519 271.532 243.696V261.788C271.529 263.965 270.661 266.053 269.119 267.593C267.577 269.132 265.486 269.999 263.305 270.001Z" fill="#F2F2F2"/>
<path d="M212.411 296.012H172.792C172.322 296.012 171.871 295.826 171.539 295.494C171.206 295.162 171.02 294.712 171.02 294.243C171.02 293.774 171.206 293.324 171.539 292.992C171.871 292.66 172.322 292.474 172.792 292.474H212.411C212.881 292.474 213.332 292.66 213.664 292.992C213.996 293.324 214.183 293.774 214.183 294.243C214.183 294.712 213.996 295.162 213.664 295.494C213.332 295.826 212.881 296.012 212.411 296.012Z" fill="white"/>
<path d="M250.514 305.744H172.347C171.877 305.744 171.426 305.557 171.093 305.226C170.761 304.894 170.574 304.444 170.574 303.974C170.574 303.505 170.761 303.055 171.093 302.723C171.426 302.392 171.877 302.205 172.347 302.205H250.514C250.984 302.205 251.434 302.392 251.767 302.723C252.099 303.055 252.286 303.505 252.286 303.974C252.286 304.444 252.099 304.894 251.767 305.226C251.434 305.557 250.984 305.744 250.514 305.744Z" fill="white"/>
<path d="M151.742 310.972C158.305 310.972 163.625 305.661 163.625 299.109C163.625 292.557 158.305 287.246 151.742 287.246C145.18 287.246 139.859 292.557 139.859 299.109C139.859 305.661 145.18 310.972 151.742 310.972Z" fill="white"/>
<path d="M109.596 269.481C108.416 268.999 107.147 268.777 105.874 268.829C104.601 268.88 103.354 269.205 102.218 269.781C101.082 270.357 100.084 271.17 99.291 272.166C98.4979 273.161 97.929 274.315 97.6227 275.55L92.7031 295.384L93.6285 330.082C93.6285 330.082 119.307 335.001 123.618 331.839C127.929 328.677 127.524 326.323 127.929 328.677C128.334 331.031 130.184 332.019 130.21 331.082C130.236 330.146 130.445 330.306 131.519 330.024C132.593 329.742 137.335 327.997 137.335 327.997L137.547 318.104C137.547 318.104 129.709 315.138 127.807 316.023C125.905 316.908 128.212 318.377 125.905 316.908C123.599 315.439 123.347 310.804 122.953 314.982C122.558 319.159 121.404 319.937 119.674 318.079C117.945 316.222 109.934 317.408 109.934 317.408L115.032 278.838C115.288 276.898 114.894 274.928 113.91 273.235C112.927 271.542 111.41 270.222 109.596 269.481Z" fill="black"/>
<path d="M101.894 211.324C103.592 210.956 105.388 211.045 106.923 209.897L105.917 212.204C108.708 211.441 111.683 211.738 114.267 213.037C115.036 213.381 115.691 213.935 116.158 214.635C116.408 215.057 116.561 215.531 116.604 216.02C116.647 216.51 116.579 217.002 116.406 217.462C116.241 217.857 115.996 218.213 115.685 218.507C115.375 218.802 115.006 219.028 114.603 219.172C113.888 219.387 113.14 219.465 112.396 219.403C109.263 219.33 106.13 219.257 102.997 219.184C101.803 219.258 100.61 219.027 99.5302 218.512C98.9564 218.158 98.4985 217.645 98.2128 217.035C97.9271 216.425 97.826 215.745 97.9219 215.078C98.2208 212.981 100.197 211.692 101.894 211.324Z" fill="black"/>
<path d="M149.095 315.133C147.883 314.567 146.497 314.496 145.233 314.935C143.968 315.374 142.926 316.288 142.326 317.482C142.208 317.727 142.11 317.981 142.034 318.242L124.14 319.31L121.488 328.565L145.843 324.457C146.95 324.688 148.104 324.546 149.122 324.054C150.141 323.562 150.968 322.747 151.474 321.737C151.756 321.159 151.922 320.531 151.961 319.889C152.001 319.248 151.913 318.605 151.704 317.997C151.494 317.389 151.167 316.828 150.74 316.347C150.314 315.865 149.796 315.472 149.217 315.19C149.177 315.17 149.136 315.151 149.095 315.133Z" fill="#FFB6B6"/>
<path d="M282.53 372.38L282.8 365.073L254.699 360.557L254.301 371.34L282.53 372.38Z" fill="#FFB6B6"/>
<path d="M277.427 374.579L277.16 362.88L282.17 363.065L290.257 352.25C290.656 351.716 291.216 351.323 291.855 351.129C292.494 350.935 293.178 350.95 293.808 351.172C294.437 351.394 294.98 351.811 295.355 352.362C295.731 352.913 295.92 353.569 295.895 354.236L295.382 368.132L290.338 370.345L295.259 371.463L295.065 376.702L277.427 374.579Z" fill="black"/>
<path d="M124.375 389.134L213.379 378.801C213.379 378.801 251.814 381.018 260.832 375.161L270.342 373.963L270.857 360.018C270.857 360.018 265.042 360.061 261.699 358.505C258.355 356.95 260.679 355.047 257.491 356.918C254.304 358.79 254.64 359.015 252.176 358.155C249.711 357.295 136.693 352.683 136.693 352.683L124.375 389.134Z" fill="black"/>
<path d="M241.662 383.082L246.837 377.909L229.314 355.519L221.676 363.153L241.662 383.082Z" fill="#FFB6B6"/>
<path d="M236.422 381.232L244.196 372.476L247.743 376.012L261.039 373.575C261.696 373.455 262.374 373.547 262.975 373.838C263.575 374.13 264.066 374.606 264.377 375.196C264.688 375.786 264.801 376.459 264.701 377.118C264.601 377.777 264.292 378.387 263.82 378.859L253.977 388.698L248.772 386.895L251.617 391.056L247.906 394.765L236.422 381.232Z" fill="black"/>
<path d="M89.2617 340.471L90.1466 361.005C91.1882 385.178 117.854 399.808 138.531 387.187C138.912 386.954 139.295 386.713 139.678 386.464C139.678 386.464 147.517 384.362 147.279 381.034C147.041 377.706 148.956 376.086 150.651 376.994C152.346 377.901 174.534 346.464 174.534 346.464C174.534 346.464 220.636 369.422 230.806 374.826L241.537 371.907C241.537 371.907 245.576 373.811 244.121 371.057C242.666 368.303 242.405 369.622 241.958 366.621C241.511 363.621 240.368 359.9 239.675 360.057C238.981 360.213 182.642 320.847 182.642 320.847C182.642 320.847 173.464 311.574 162.078 317.696C161.841 318.596 162.044 318.627 162.044 318.627L124.434 349.222L119.119 339.146L89.2617 340.471Z" fill="black"/>
<path d="M114.541 265.023L98.4155 257.479L93.5878 265.865C93.5878 265.865 80.6217 284.336 80.4336 297.662C80.2455 310.988 82.5467 314.951 82.5467 314.951C82.5467 314.951 76.9562 319.124 79.7514 321.674C82.5466 324.225 88.7349 325.325 83.982 326.431C79.2291 327.536 80.4336 338.73 85.7416 340.717C91.0497 342.705 119.556 342.687 119.556 342.687C119.3 341.819 119.281 340.899 119.502 340.021C119.722 339.144 120.174 338.341 120.81 337.697C123.02 335.485 125.011 337.072 123.02 333.629C121.03 330.186 117.712 332.173 120.366 327.536C123.02 322.9 123.019 321.514 123.019 321.514C123.019 321.514 128.43 311.235 120.28 300.083C119.784 299.403 120.201 299.377 120.201 299.377L113.621 277.362L114.541 265.023Z" fill="black" fill-opacity="0.7"/>
<path d="M88.5536 233.3C88.69 236.7 86.5434 241.518 85.4863 244.423C84.3561 247.529 89.2545 251.652 92.3898 252.555C92.553 251.479 93.0906 250.494 93.9083 249.775C93.6823 250.8 93.6626 251.86 93.8504 252.893L120.356 258.917C125.124 253.405 129.919 245.48 128.873 235.921C129.123 234.107 128.831 232.258 128.033 230.608C127.235 228.958 125.967 227.581 124.387 226.648L110.987 218.745C105.288 217.45 98.11 216.668 93.9932 220.189C92.1539 221.822 90.709 223.851 89.7669 226.121C88.8248 228.392 88.41 230.846 88.5536 233.3Z" fill="black"/>
<path d="M112.245 256.005C120.673 256.005 127.505 249.184 127.505 240.77C127.505 232.356 120.673 225.535 112.245 225.535C103.817 225.535 96.9844 232.356 96.9844 240.77C96.9844 249.184 103.817 256.005 112.245 256.005Z" fill="#FFB6B6"/>
<path d="M94.3692 232.631L93.6328 235.86L106.507 238.786C106.519 238.133 106.665 237.489 106.938 236.895C107.21 236.301 107.602 235.77 108.09 235.335C107.813 236.601 107.844 237.915 108.183 239.167C115.126 243.056 121.384 244.434 126.995 243.442C127.756 243.615 128.554 243.479 129.214 243.065C129.873 242.65 130.341 241.991 130.515 241.232C132.772 231.331 126.857 221.212 116.988 218.754C114.589 218.155 112.095 218.041 109.651 218.417C107.207 218.793 104.863 219.653 102.757 220.945C100.65 222.238 98.8228 223.937 97.3825 225.943C95.9423 227.95 94.9178 230.224 94.3692 232.631Z" fill="black"/>
<path d="M184.677 330.726C184.641 330.683 184.599 330.644 184.553 330.612C184.439 330.48 184.3 330.371 184.144 330.292L183.027 329.696L175.614 321.479C175.184 321.256 174.685 321.208 174.221 321.346L174.202 321.352L171.027 322.332L168.295 323.178L164.48 324.359L138.493 332.392L121.411 337.672C120.95 337.818 120.564 338.139 120.337 338.566C120.11 338.993 120.06 339.492 120.198 339.956C120.278 340.211 120.411 340.447 120.588 340.648L121.131 341.252L122.271 342.52L124.913 347.985L125.646 348.801C125.879 349.061 126.182 349.249 126.519 349.344C126.856 349.438 127.212 349.435 127.547 349.334L183.822 333.712C184.114 333.617 184.379 333.452 184.592 333.232C184.806 333.011 184.962 332.742 185.046 332.447C185.131 332.152 185.141 331.841 185.077 331.541C185.013 331.241 184.876 330.961 184.677 330.726Z" fill="#CCCCCC"/>
<path d="M181.337 249.449L180.247 249.625C179.948 249.675 179.681 249.84 179.504 250.085L179.024 250.755L174.693 261.567C174.517 261.814 174.446 262.121 174.496 262.42L175.004 265.501L173.086 320.482C173.134 320.767 173.287 321.023 173.515 321.2L181.923 332.429L182.12 332.585L182.543 332.916C182.76 333.083 183.03 333.169 183.304 333.157L184.019 333.123C184.181 333.116 184.34 333.073 184.484 333C184.629 332.926 184.757 332.823 184.858 332.696C184.961 332.571 185.035 332.425 185.076 332.268C185.118 332.112 185.125 331.948 185.097 331.789L182.657 250.389C182.608 250.09 182.442 249.823 182.195 249.647C181.949 249.47 181.642 249.399 181.342 249.448L181.337 249.449Z" fill="#CCCCCC"/>
<path d="M179.512 253.721L175.676 265.387L174.191 311.989L180.163 317.288L179.512 253.721Z" fill="black" fill-opacity="0.7"/>
<path d="M2.88424e-06 394C-0.000252338 394.131 0.016433 394.262 0.0490932 394.383C0.0817533 394.505 0.129749 394.615 0.190314 394.708C0.25088 394.801 0.322819 394.875 0.402 394.925C0.481181 394.975 0.566038 395 0.651688 395H392.348C392.521 395 392.687 394.895 392.809 394.707C392.931 394.52 393 394.265 393 394C393 393.735 392.931 393.48 392.809 393.293C392.687 393.105 392.521 393 392.348 393H0.651655C0.566008 393 0.481159 393.025 0.401983 393.075C0.322808 393.125 0.250868 393.199 0.190306 393.292C0.129744 393.385 0.0817523 393.495 0.0490932 393.617C0.016434 393.738 -0.00024941 393.869 2.88424e-06 394Z" fill="#CCCCCC"/>
<path d="M370.793 223.634H236.328C234.147 223.631 232.056 222.765 230.514 221.226C228.972 219.686 228.104 217.598 228.102 215.421V197.329C228.104 195.152 228.972 193.064 230.514 191.524C232.056 189.985 234.147 189.119 236.328 189.116H370.793C372.974 189.119 375.065 189.985 376.607 191.524C378.15 193.064 379.017 195.152 379.02 197.329V215.421C379.017 217.598 378.15 219.686 376.607 221.226C375.065 222.765 372.974 223.631 370.793 223.634Z" fill="#C0E1E9"/>
<path d="M319.895 203.278H280.276C279.806 203.278 279.355 203.092 279.023 202.76C278.691 202.428 278.504 201.978 278.504 201.509C278.504 201.039 278.691 200.589 279.023 200.257C279.355 199.926 279.806 199.739 280.276 199.739H319.895C320.365 199.739 320.816 199.926 321.148 200.257C321.481 200.589 321.667 201.039 321.667 201.509C321.667 201.978 321.481 202.428 321.148 202.76C320.816 203.092 320.365 203.278 319.895 203.278Z" fill="white"/>
<path d="M358.002 213.009H279.835C279.365 213.009 278.914 212.823 278.582 212.491C278.249 212.159 278.062 211.709 278.062 211.24C278.062 210.771 278.249 210.321 278.582 209.989C278.914 209.657 279.365 209.471 279.835 209.471H358.002C358.472 209.471 358.923 209.657 359.255 209.989C359.587 210.321 359.774 210.771 359.774 211.24C359.774 211.709 359.587 212.159 359.255 212.491C358.923 212.823 358.472 213.009 358.002 213.009Z" fill="white"/>
<path d="M259.231 218.238C265.793 218.238 271.114 212.926 271.114 206.375C271.114 199.823 265.793 194.512 259.231 194.512C252.668 194.512 247.348 199.823 247.348 206.375C247.348 212.926 252.668 218.238 259.231 218.238Z" fill="white"/>
<path d="M327.664 270.001H193.2C191.018 269.999 188.927 269.132 187.385 267.593C185.843 266.053 184.975 263.965 184.973 261.788V243.696C184.975 241.519 185.843 239.431 187.385 237.892C188.927 236.352 191.018 235.486 193.2 235.483H327.664C329.845 235.486 331.936 236.352 333.479 237.892C335.021 239.431 335.888 241.519 335.891 243.696V261.788C335.888 263.965 335.021 266.053 333.479 267.593C331.936 269.132 329.845 269.999 327.664 270.001Z" fill="black"/>
<path d="M276.77 249.645H237.151C236.681 249.645 236.23 249.459 235.898 249.127C235.566 248.795 235.379 248.345 235.379 247.876C235.379 247.407 235.566 246.957 235.898 246.625C236.23 246.293 236.681 246.106 237.151 246.106H276.77C277.24 246.106 277.691 246.293 278.023 246.625C278.356 246.957 278.542 247.407 278.542 247.876C278.542 248.345 278.356 248.795 278.023 249.127C277.691 249.459 277.24 249.645 276.77 249.645Z" fill="white"/>
<path d="M314.873 259.377H236.706C236.236 259.377 235.785 259.19 235.453 258.858C235.12 258.527 234.934 258.077 234.934 257.607C234.934 257.138 235.12 256.688 235.453 256.356C235.785 256.024 236.236 255.838 236.706 255.838H314.873C315.343 255.838 315.794 256.024 316.126 256.356C316.458 256.688 316.645 257.138 316.645 257.607C316.645 258.077 316.458 258.527 316.126 258.858C315.794 259.19 315.343 259.377 314.873 259.377Z" fill="white"/>
<path d="M216.102 264.605C222.664 264.605 227.985 259.294 227.985 252.742C227.985 246.19 222.664 240.879 216.102 240.879C209.539 240.879 204.219 246.19 204.219 252.742C204.219 259.294 209.539 264.605 216.102 264.605Z" fill="white"/>
</svg>
