<svg width="420" height="391" viewBox="0 0 420 391" fill="none" xmlns="http://www.w3.org/2000/svg">
<rect x="178" y="36" width="189" height="36" rx="5" fill="black"/>
<rect y="168" width="189" height="36" rx="5" fill="black"/>
<path d="M295.19 92.6281H292.921V33.958C292.921 29.4986 291.991 25.0828 290.183 20.9628C288.375 16.8429 285.725 13.0994 282.384 9.94607C279.043 6.79278 275.077 4.29145 270.713 2.5849C266.348 0.878347 261.67 0 256.945 0H125.253C115.712 0 106.561 3.57771 99.8145 9.94607C93.0677 16.3144 89.2773 24.9518 89.2773 33.958V355.832C89.2773 360.292 90.2079 364.708 92.0158 368.828C93.8238 372.948 96.4738 376.691 99.8145 379.844C103.155 382.998 107.121 385.499 111.486 387.206C115.851 388.912 120.529 389.79 125.253 389.79H256.945C266.487 389.79 275.637 386.213 282.384 379.844C289.13 373.476 292.921 364.839 292.921 355.832V134.391H295.19L295.19 92.6281Z" fill="black"/>
<path d="M258.396 8.83105H241.207C241.998 10.6606 242.299 12.6455 242.086 14.611C241.872 16.5765 241.15 18.4623 239.982 20.1021C238.814 21.7419 237.237 23.0855 235.39 24.0145C233.542 24.9435 231.481 25.4294 229.388 25.4293H153.943C151.85 25.4292 149.789 24.9432 147.942 24.0142C146.094 23.0851 144.518 21.7415 143.35 20.1017C142.182 18.4619 141.46 16.5762 141.246 14.6107C141.033 12.6453 141.335 10.6605 142.125 8.83105H126.07C118.944 8.83105 112.111 11.5029 107.072 16.2587C102.034 21.0145 99.2031 27.4648 99.2031 34.1906V355.598C99.2031 362.323 102.034 368.774 107.072 373.53C112.111 378.285 118.944 380.957 126.07 380.957H258.396C265.521 380.957 272.355 378.285 277.393 373.53C282.432 368.774 285.262 362.323 285.262 355.598V34.19C285.262 27.4644 282.432 21.0142 277.393 16.2585C272.355 11.5028 265.521 8.83105 258.396 8.83105Z" fill="white"/>
<path d="M175.372 136.864C175.372 134.617 175.998 132.41 177.189 130.465C178.379 128.519 180.092 126.904 182.154 125.782C180.093 124.658 177.755 124.067 175.375 124.066C172.995 124.066 170.657 124.657 168.596 125.78C166.535 126.903 164.823 128.519 163.633 130.464C162.443 132.41 161.816 134.616 161.816 136.863C161.816 139.109 162.443 141.316 163.633 143.262C164.823 145.207 166.535 146.822 168.596 147.945C170.657 149.068 172.995 149.66 175.375 149.659C177.755 149.659 180.093 149.067 182.154 147.944C180.092 146.822 178.379 145.207 177.189 143.262C175.999 141.317 175.372 139.11 175.372 136.864Z" fill="black"/>
<path d="M192.415 136.864C192.415 134.617 193.041 132.41 194.232 130.465C195.422 128.519 197.135 126.904 199.197 125.782C197.136 124.658 194.798 124.067 192.418 124.066C190.038 124.066 187.7 124.657 185.639 125.78C183.578 126.903 181.866 128.519 180.676 130.464C179.486 132.41 178.859 134.616 178.859 136.863C178.859 139.109 179.486 141.316 180.676 143.262C181.866 145.207 183.578 146.822 185.639 147.945C187.7 149.068 190.038 149.66 192.418 149.659C194.798 149.659 197.136 149.067 199.197 147.944C197.135 146.822 195.422 145.207 194.232 143.262C193.042 141.317 192.415 139.11 192.415 136.864Z" fill="#CCCCCC"/>
<path d="M209.069 149.659C216.556 149.659 222.626 143.93 222.626 136.863C222.626 129.796 216.556 124.066 209.069 124.066C201.581 124.066 195.512 129.796 195.512 136.863C195.512 143.93 201.581 149.659 209.069 149.659Z" fill="#C0E1E9"/>
<path d="M231.725 176.831H152.712C151.96 176.831 151.239 176.548 150.707 176.046C150.175 175.544 149.876 174.863 149.875 174.153V99.5726C149.876 98.8626 150.175 98.1819 150.707 97.6798C151.239 97.1778 151.96 96.8954 152.712 96.8945H231.725C232.477 96.8954 233.198 97.1778 233.73 97.6798C234.262 98.1819 234.561 98.8626 234.562 99.5726V174.153C234.561 174.863 234.262 175.544 233.73 176.046C233.198 176.548 232.477 176.831 231.725 176.831ZM152.712 97.9664C152.261 97.9668 151.828 98.1362 151.509 98.4375C151.19 98.7387 151.01 99.1472 151.01 99.5732V174.154C151.01 174.58 151.19 174.988 151.509 175.29C151.828 175.591 152.261 175.76 152.712 175.761H231.725C232.176 175.76 232.609 175.591 232.928 175.29C233.247 174.988 233.427 174.58 233.427 174.154V99.5732C233.427 99.1472 233.247 98.7387 232.928 98.4375C232.609 98.1362 232.176 97.9668 231.725 97.9664H152.712Z" fill="#CCCCCC"/>
<path d="M249.369 234.001H128.188V235.072H249.369V234.001Z" fill="#CCCCCC"/>
<path d="M132.014 227.313C134.128 227.313 135.841 225.695 135.841 223.7C135.841 221.705 134.128 220.088 132.014 220.088C129.901 220.088 128.188 221.705 128.188 223.7C128.188 225.695 129.901 227.313 132.014 227.313Z" fill="black"/>
<path d="M249.369 270.122H128.188V271.193H249.369V270.122Z" fill="#CCCCCC"/>
<path d="M132.014 263.434C134.128 263.434 135.841 261.816 135.841 259.821C135.841 257.826 134.128 256.209 132.014 256.209C129.901 256.209 128.188 257.826 128.188 259.821C128.188 261.816 129.901 263.434 132.014 263.434Z" fill="black"/>
<path d="M247.151 311.255H208.855C208.193 311.254 207.559 311.006 207.091 310.565C206.623 310.123 206.36 309.524 206.359 308.9V296.23C206.36 295.606 206.623 295.007 207.091 294.566C207.559 294.124 208.193 293.876 208.855 293.875H247.151C247.813 293.876 248.447 294.124 248.915 294.566C249.383 295.007 249.646 295.606 249.646 296.23V308.9C249.646 309.524 249.383 310.123 248.915 310.565C248.447 311.006 247.813 311.254 247.151 311.255Z" fill="black"/>
<path d="M144.499 227.313C146.612 227.313 148.326 225.695 148.326 223.7C148.326 221.705 146.612 220.088 144.499 220.088C142.385 220.088 140.672 221.705 140.672 223.7C140.672 225.695 142.385 227.313 144.499 227.313Z" fill="black"/>
<path d="M156.979 227.313C159.093 227.313 160.806 225.695 160.806 223.7C160.806 221.705 159.093 220.088 156.979 220.088C154.866 220.088 153.152 221.705 153.152 223.7C153.152 225.695 154.866 227.313 156.979 227.313Z" fill="black"/>
<path d="M144.499 263.434C146.612 263.434 148.326 261.816 148.326 259.821C148.326 257.826 146.612 256.209 144.499 256.209C142.385 256.209 140.672 257.826 140.672 259.821C140.672 261.816 142.385 263.434 144.499 263.434Z" fill="black"/>
<path d="M156.979 263.434C159.093 263.434 160.806 261.816 160.806 259.821C160.806 257.826 159.093 256.209 156.979 256.209C154.866 256.209 153.152 257.826 153.152 259.821C153.152 261.816 154.866 263.434 156.979 263.434Z" fill="black"/>
<path d="M418.457 391H20.3512C19.4989 391 18.8086 390.714 18.8086 390.363C18.8086 390.011 19.4989 389.725 20.3512 389.725H418.457C419.309 389.725 419.999 390.01 419.999 390.363C419.999 390.715 419.309 391 418.457 391Z" fill="black"/>
<path d="M320.098 256.171C320.37 256.289 320.632 256.427 320.881 256.583L345.75 246.564L346.638 240.381L356.575 240.323L355.988 254.506L323.163 262.7C323.094 262.915 323.011 263.126 322.915 263.332C322.44 264.288 321.677 265.09 320.721 265.638C319.765 266.186 318.659 266.454 317.542 266.411C316.424 266.367 315.345 266.013 314.441 265.392C313.536 264.772 312.846 263.913 312.456 262.923C312.067 261.934 311.996 260.857 312.253 259.83C312.509 258.803 313.082 257.87 313.898 257.148C314.715 256.427 315.739 255.949 316.842 255.775C317.945 255.602 319.078 255.739 320.098 256.171Z" fill="#FFB8B8"/>
<path d="M360.192 384.691H353.394L350.16 359.941L360.193 359.942L360.192 384.691Z" fill="#FFB8B8"/>
<path d="M348.536 382.856H361.646V390.648H340.281C340.281 388.581 341.151 386.6 342.699 385.139C344.247 383.677 346.346 382.856 348.536 382.856Z" fill="black"/>
<path d="M386.629 382.877L379.863 383.506L374.074 359.176L384.059 358.247L386.629 382.877Z" fill="#FFB8B8"/>
<path d="M374.84 382.131L387.886 380.918L388.696 388.672L367.434 390.648C367.328 389.63 367.435 388.602 367.75 387.623C368.064 386.644 368.58 385.733 369.268 384.942C369.956 384.151 370.802 383.496 371.758 383.013C372.714 382.531 373.761 382.231 374.84 382.131Z" fill="black"/>
<path d="M362.083 214.13C369.605 214.13 375.702 208.375 375.702 201.275C375.702 194.176 369.605 188.421 362.083 188.421C354.562 188.421 348.465 194.176 348.465 201.275C348.465 208.375 354.562 214.13 362.083 214.13Z" fill="#FFB8B8"/>
<path d="M351.872 379.685C351.288 379.687 350.722 379.493 350.274 379.139C349.827 378.785 349.526 378.293 349.424 377.75C345.906 359.314 334.405 299.032 334.13 297.362C334.124 297.324 334.121 297.285 334.121 297.246V292.752C334.121 292.588 334.175 292.428 334.276 292.295L335.795 290.287C335.868 290.19 335.962 290.11 336.072 290.054C336.182 289.997 336.304 289.965 336.429 289.96C345.092 289.576 373.46 288.453 374.83 290.069C376.207 291.693 375.72 296.615 375.609 297.585L375.614 297.686L388.359 374.619C388.459 375.233 388.299 375.859 387.913 376.362C387.528 376.865 386.948 377.204 386.299 377.307L378.339 378.545C377.746 378.634 377.139 378.52 376.627 378.223C376.116 377.926 375.735 377.466 375.552 376.926C373.09 369.5 364.835 344.52 361.974 334.854C361.956 334.792 361.915 334.739 361.859 334.705C361.803 334.67 361.735 334.655 361.668 334.664C361.602 334.673 361.541 334.705 361.497 334.753C361.453 334.801 361.429 334.863 361.43 334.926C361.573 344.14 361.919 367.649 362.038 375.769L362.051 376.643C362.056 377.235 361.826 377.808 361.406 378.247C360.985 378.687 360.406 378.962 359.781 379.017L352.105 379.676C352.027 379.682 351.949 379.685 351.872 379.685Z" fill="black"/>
<path d="M353.44 219.184C351.064 220.518 349.641 222.968 348.825 225.462C347.314 230.079 346.405 234.852 346.117 239.677L345.255 254.122L334.578 292.417C343.832 299.807 349.169 298.128 361.626 292.083C374.082 286.037 375.505 294.098 375.505 294.098L377.996 261.514L381.555 225.908C380.756 225 379.852 224.179 378.86 223.461C375.57 221.047 371.743 219.369 367.667 218.553C363.59 217.738 359.371 217.806 355.326 218.753L353.44 219.184Z" fill="black"/>
<path d="M349.972 263.905C350.259 264.007 350.538 264.13 350.804 264.273L375.394 252.656L375.802 246.362L385.946 245.702L386.489 260.049L353.628 270.307C353.36 271.393 352.747 272.377 351.872 273.127C350.997 273.876 349.901 274.357 348.73 274.505C347.559 274.652 346.368 274.46 345.315 273.953C344.262 273.445 343.398 272.648 342.837 271.666C342.277 270.684 342.046 269.564 342.176 268.456C342.306 267.347 342.79 266.302 343.565 265.459C344.339 264.617 345.367 264.017 346.512 263.739C347.656 263.462 348.863 263.519 349.972 263.905Z" fill="#FFB8B8"/>
<path d="M381.377 226.071C387.427 228.087 388.493 249.923 388.493 249.923C381.375 246.228 372.834 252.275 372.834 252.275C372.834 252.275 371.054 246.564 368.919 239.174C368.274 237.095 368.197 234.896 368.695 232.781C369.193 230.667 370.249 228.706 371.766 227.08C371.766 227.08 375.327 224.054 381.377 226.071Z" fill="black"/>
<path d="M374.293 204.675C372.596 203.393 370.281 205.722 370.281 205.722L368.924 194.19C368.924 194.19 360.44 195.15 355.01 193.87C349.58 192.591 348.732 198.515 348.732 198.515C348.452 196.122 348.395 193.711 348.562 191.308C348.901 188.425 353.313 185.542 361.119 183.62C368.924 181.698 372.996 190.027 372.996 190.027C378.426 192.589 375.99 205.956 374.293 204.675Z" fill="black"/>
</svg>
