<svg width="119" height="33" viewBox="0 0 119 33" fill="none" xmlns="http://www.w3.org/2000/svg">
<path d="M7.061 24.276C5.88033 24.276 4.83767 24.0767 3.933 23.678C3.02833 23.264 2.31533 22.6813 1.794 21.93C1.27267 21.1633 1.00433 20.2357 0.989 19.147H4.094C4.12467 19.8983 4.393 20.5347 4.899 21.056C5.42033 21.562 6.13333 21.815 7.038 21.815C7.82 21.815 8.441 21.631 8.901 21.263C9.361 20.8797 9.591 20.3737 9.591 19.745C9.591 19.0857 9.384 18.572 8.97 18.204C8.57133 17.836 8.03467 17.537 7.36 17.307C6.68533 17.077 5.96467 16.8317 5.198 16.571C3.956 16.1417 3.00533 15.5897 2.346 14.915C1.702 14.2403 1.38 13.3433 1.38 12.224C1.36467 11.2733 1.587 10.4607 2.047 9.786C2.52233 9.096 3.16633 8.567 3.979 8.199C4.79167 7.81567 5.727 7.624 6.785 7.624C7.85833 7.624 8.80133 7.81567 9.614 8.199C10.442 8.58233 11.086 9.119 11.546 9.809C12.0213 10.499 12.2743 11.3193 12.305 12.27H9.154C9.13867 11.7027 8.91633 11.2043 8.487 10.775C8.073 10.3303 7.49033 10.108 6.739 10.108C6.095 10.0927 5.55067 10.2537 5.106 10.591C4.67667 10.913 4.462 11.3883 4.462 12.017C4.462 12.5537 4.63067 12.983 4.968 13.305C5.30533 13.6117 5.76533 13.8723 6.348 14.087C6.93067 14.3017 7.59767 14.5317 8.349 14.777C9.14633 15.053 9.87467 15.375 10.534 15.743C11.1933 16.111 11.7223 16.6017 12.121 17.215C12.5197 17.813 12.719 18.5873 12.719 19.538C12.719 20.3813 12.5043 21.1633 12.075 21.884C11.6457 22.6047 11.0093 23.1873 10.166 23.632C9.32267 24.0613 8.28767 24.276 7.061 24.276ZM18.3466 24C17.1506 24 16.1923 23.7087 15.4716 23.126C14.751 22.5433 14.3906 21.5083 14.3906 20.021V15.053H12.4356V12.592H14.3906L14.7356 9.533H17.3346V12.592H20.4166V15.053H17.3346V20.044C17.3346 20.596 17.4496 20.9793 17.6796 21.194C17.925 21.3933 18.339 21.493 18.9216 21.493H20.3476V24H18.3466ZM26.1713 24.276C25.0673 24.276 24.0706 24.023 23.1813 23.517C22.3073 23.011 21.6096 22.3133 21.0883 21.424C20.5823 20.5193 20.3293 19.4767 20.3293 18.296C20.3293 17.1153 20.59 16.0803 21.1113 15.191C21.6326 14.2863 22.3303 13.581 23.2043 13.075C24.0936 12.569 25.0903 12.316 26.1943 12.316C27.283 12.316 28.2643 12.569 29.1383 13.075C30.0276 13.581 30.7253 14.2863 31.2313 15.191C31.7526 16.0803 32.0133 17.1153 32.0133 18.296C32.0133 19.4767 31.7526 20.5193 31.2313 21.424C30.7253 22.3133 30.0276 23.011 29.1383 23.517C28.249 24.023 27.26 24.276 26.1713 24.276ZM26.1713 21.723C26.938 21.723 27.605 21.4393 28.1723 20.872C28.7396 20.2893 29.0233 19.4307 29.0233 18.296C29.0233 17.1613 28.7396 16.3103 28.1723 15.743C27.605 15.1603 26.9456 14.869 26.1943 14.869C25.4123 14.869 24.7376 15.1603 24.1703 15.743C23.6183 16.3103 23.3423 17.1613 23.3423 18.296C23.3423 19.4307 23.6183 20.2893 24.1703 20.872C24.7376 21.4393 25.4046 21.723 26.1713 21.723ZM32.6905 24V12.592H35.3125L35.5885 14.731C36.0025 13.995 36.5622 13.4123 37.2675 12.983C37.9882 12.5383 38.8315 12.316 39.7975 12.316V15.421H38.9695C38.3255 15.421 37.7505 15.5207 37.2445 15.72C36.7385 15.9193 36.3399 16.2643 36.0485 16.755C35.7725 17.2457 35.6345 17.928 35.6345 18.802V24H32.6905ZM45.1955 24.276C44.0455 24.276 43.0259 24.0307 42.1365 23.54C41.2472 23.0493 40.5495 22.3593 40.0435 21.47C39.5375 20.5807 39.2845 19.5533 39.2845 18.388C39.2845 17.2073 39.5299 16.157 40.0205 15.237C40.5265 14.317 41.2165 13.604 42.0905 13.098C42.9799 12.5767 44.0225 12.316 45.2185 12.316C46.3379 12.316 47.3269 12.5613 48.1855 13.052C49.0442 13.5427 49.7112 14.2173 50.1865 15.076C50.6772 15.9193 50.9225 16.8623 50.9225 17.905C50.9225 18.0737 50.9149 18.25 50.8995 18.434C50.8995 18.618 50.8919 18.8097 50.8765 19.009H42.2055C42.2669 19.8983 42.5735 20.596 43.1255 21.102C43.6929 21.608 44.3752 21.861 45.1725 21.861C45.7705 21.861 46.2689 21.7307 46.6675 21.47C47.0815 21.194 47.3882 20.8413 47.5875 20.412H50.5775C50.3629 21.1327 50.0025 21.792 49.4965 22.39C49.0059 22.9727 48.3925 23.4327 47.6565 23.77C46.9359 24.1073 46.1155 24.276 45.1955 24.276ZM45.2185 14.708C44.4979 14.708 43.8615 14.915 43.3095 15.329C42.7575 15.7277 42.4049 16.341 42.2515 17.169H47.9325C47.8865 16.4177 47.6105 15.8197 47.1045 15.375C46.5985 14.9303 45.9699 14.708 45.2185 14.708ZM51.5126 24V7.9H54.4566V14.593H61.6786V7.9H64.6226V24H61.6786V16.985H54.4566V24H51.5126ZM70.0059 24.276C68.5799 24.276 67.4759 23.8313 66.6939 22.942C65.9272 22.0527 65.5439 20.7493 65.5439 19.032V12.592H68.4649V18.756C68.4649 19.7373 68.6642 20.4887 69.0629 21.01C69.4616 21.5313 70.0902 21.792 70.9489 21.792C71.7616 21.792 72.4286 21.5007 72.9499 20.918C73.4866 20.3353 73.7549 19.5227 73.7549 18.48V12.592H76.6989V24H74.0999L73.8699 22.068C73.5172 22.7427 73.0036 23.2793 72.3289 23.678C71.6696 24.0767 70.8952 24.276 70.0059 24.276ZM84.5281 24.276C83.6694 24.276 82.9181 24.115 82.2741 23.793C81.6301 23.471 81.1087 23.0187 80.7101 22.436L80.3881 24H77.7661V7.44H80.7101V14.225C81.0781 13.719 81.5611 13.2743 82.1591 12.891C82.7724 12.5077 83.5621 12.316 84.5281 12.316C85.6014 12.316 86.5597 12.5767 87.4031 13.098C88.2464 13.6193 88.9134 14.3323 89.4041 15.237C89.8947 16.1417 90.1401 17.169 90.1401 18.319C90.1401 19.469 89.8947 20.4963 89.4041 21.401C88.9134 22.2903 88.2464 22.9957 87.4031 23.517C86.5597 24.023 85.6014 24.276 84.5281 24.276ZM83.9071 21.7C84.8424 21.7 85.6167 21.3857 86.2301 20.757C86.8434 20.1283 87.1501 19.3157 87.1501 18.319C87.1501 17.3223 86.8434 16.502 86.2301 15.858C85.6167 15.214 84.8424 14.892 83.9071 14.892C82.9564 14.892 82.1744 15.214 81.5611 15.858C80.9631 16.4867 80.6641 17.2993 80.6641 18.296C80.6641 19.2927 80.9631 20.113 81.5611 20.757C82.1744 21.3857 82.9564 21.7 83.9071 21.7Z" fill="black"/>
<path d="M113.375 7.875H110V6.75C110 5.55653 109.526 4.41193 108.682 3.56802C107.838 2.72411 106.693 2.25 105.5 2.25C104.307 2.25 103.162 2.72411 102.318 3.56802C101.474 4.41193 101 5.55653 101 6.75V7.875H97.625C97.3266 7.875 97.0405 7.99353 96.8295 8.20451C96.6185 8.41548 96.5 8.70163 96.5 9V21.375C96.5 22.2701 96.8556 23.1286 97.4885 23.7615C98.1214 24.3944 98.9799 24.75 99.875 24.75H111.125C112.02 24.75 112.879 24.3944 113.511 23.7615C114.144 23.1286 114.5 22.2701 114.5 21.375V9C114.5 8.70163 114.381 8.41548 114.17 8.20451C113.96 7.99353 113.673 7.875 113.375 7.875ZM103.25 6.75C103.25 6.15326 103.487 5.58097 103.909 5.15901C104.331 4.73705 104.903 4.5 105.5 4.5C106.097 4.5 106.669 4.73705 107.091 5.15901C107.513 5.58097 107.75 6.15326 107.75 6.75V7.875H103.25V6.75ZM112.25 21.375C112.25 21.6734 112.131 21.9595 111.92 22.1705C111.71 22.3815 111.423 22.5 111.125 22.5H99.875C99.5766 22.5 99.2905 22.3815 99.0795 22.1705C98.8685 21.9595 98.75 21.6734 98.75 21.375V10.125H101V11.25C101 11.5484 101.119 11.8345 101.33 12.0455C101.54 12.2565 101.827 12.375 102.125 12.375C102.423 12.375 102.71 12.2565 102.92 12.0455C103.131 11.8345 103.25 11.5484 103.25 11.25V10.125H107.75V11.25C107.75 11.5484 107.869 11.8345 108.08 12.0455C108.29 12.2565 108.577 12.375 108.875 12.375C109.173 12.375 109.46 12.2565 109.67 12.0455C109.881 11.8345 110 11.5484 110 11.25V10.125H112.25V21.375Z" fill="black"/>
<path d="M76 26H90.5V28H76V26Z" fill="#F5E44A"/>
</svg>
