<svg width="14" height="11" viewBox="0 0 14 11" fill="none" xmlns="http://www.w3.org/2000/svg">
<path d="M7 2.5C7 3.16304 6.73661 3.79893 6.26777 4.26777C5.79893 4.73661 5.16304 5 4.5 5C3.83696 5 3.20107 4.73661 2.73223 4.26777C2.26339 3.79893 2 3.16304 2 2.5C2 1.83696 2.26339 1.20107 2.73223 0.732233C3.20107 0.263392 3.83696 0 4.5 0C5.16304 0 5.79893 0.263392 6.26777 0.732233C6.73661 1.20107 7 1.83696 7 2.5ZM10.5 5C11.0304 5 11.5391 4.78929 11.9142 4.41421C12.2893 4.03914 12.5 3.53043 12.5 3C12.5 2.46957 12.2893 1.96086 11.9142 1.58579C11.5391 1.21071 11.0304 1 10.5 1C9.96957 1 9.46086 1.21071 9.08579 1.58579C8.71071 1.96086 8.5 2.46957 8.5 3C8.5 3.53043 8.71071 4.03914 9.08579 4.41421C9.46086 4.78929 9.96957 5 10.5 5ZM9.5 7.594V7.5C9.50072 6.95896 9.3252 6.4324 9 6H12.273C12.949 6 13.498 6.548 13.498 7.225C13.498 7.225 13.498 9.5 10.498 9.5C9.9 9.5 9.421 9.41 9.038 9.265C9.27687 8.82729 9.42867 8.34745 9.485 7.852C9.491 7.79 9.495 7.737 9.497 7.693L9.5 7.594ZM8.5 7.5C8.5 7.10218 8.34196 6.72064 8.06066 6.43934C7.77936 6.15804 7.39782 6 7 6H2C1.60218 6 1.22064 6.15804 0.93934 6.43934C0.658035 6.72064 0.5 7.10218 0.5 7.5V7.575C0.5 7.575 0.5 10.5 4.5 10.5C8.312 10.5 8.491 7.844 8.5 7.594V7.5Z" fill="black" fill-opacity="0.89"/>
</svg>
