<svg width="26" height="26" viewBox="0 0 26 26" fill="none" xmlns="http://www.w3.org/2000/svg">
<path d="M6.4545 3.8728C5.0286 3.8728 3.87268 5.02872 3.87268 6.45462V9.03644C3.87268 10.4623 5.0286 11.6183 6.4545 11.6183H9.03632C10.4622 11.6183 11.6181 10.4623 11.6181 9.03644V6.45462C11.6181 5.02872 10.4622 3.8728 9.03632 3.8728H6.4545Z" fill="#5BBFD7"/>
<path d="M6.4545 14.2001C5.0286 14.2001 3.87268 15.356 3.87268 16.7819V19.3637C3.87268 20.7896 5.0286 21.9455 6.4545 21.9455H9.03632C10.4622 21.9455 11.6181 20.7896 11.6181 19.3637V16.7819C11.6181 15.356 10.4622 14.2001 9.03632 14.2001H6.4545Z" fill="#5BBFD7"/>
<path d="M14.2 6.45462C14.2 5.02872 15.3559 3.8728 16.7818 3.8728H19.3636C20.7895 3.8728 21.9454 5.02872 21.9454 6.45462V9.03644C21.9454 10.4623 20.7895 11.6183 19.3636 11.6183H16.7818C15.3559 11.6183 14.2 10.4623 14.2 9.03644V6.45462Z" fill="#5BBFD7"/>
<path d="M14.2 16.7819C14.2 15.356 15.3559 14.2001 16.7818 14.2001H19.3636C20.7895 14.2001 21.9454 15.356 21.9454 16.7819V19.3637C21.9454 20.7896 20.7895 21.9455 19.3636 21.9455H16.7818C15.3559 21.9455 14.2 20.7896 14.2 19.3637V16.7819Z" fill="#5BBFD7"/>
</svg>
