<svg width="11" height="10" viewBox="0 0 11 10" fill="none" xmlns="http://www.w3.org/2000/svg">
<path fill-rule="evenodd" clip-rule="evenodd" d="M7.25 6.8C6.90482 6.8 6.625 7.06863 6.625 7.4C6.625 7.73137 6.90482 8 7.25 8H10.375C10.7202 8 11 7.73137 11 7.4V4.4C11 4.06863 10.7202 3.8 10.375 3.8C10.0298 3.8 9.75 4.06863 9.75 4.4V5.95147L7.06694 3.37574C6.82286 3.14142 6.42714 3.14142 6.18306 3.37574L4.75 4.75147L2.06694 2.17574C1.82286 1.94142 1.42714 1.94142 1.18306 2.17574C0.938981 2.41005 0.938981 2.78995 1.18306 3.02426L4.30806 6.02426C4.55214 6.25858 4.94786 6.25858 5.19194 6.02426L6.625 4.64853L8.86612 6.8H7.25Z" fill="#EF2A1E"/>
</svg>
