<svg width="20" height="10" viewBox="0 0 20 10" fill="none" xmlns="http://www.w3.org/2000/svg">
<g clip-path="url(#clip0_1192_3488)">
<path d="M18.6667 10H1.33333C0.979711 10 0.640573 9.89464 0.390524 9.70711C0.140476 9.51957 0 9.26522 0 9L0 1C0 0.734784 0.140476 0.48043 0.390524 0.292893C0.640573 0.105357 0.979711 0 1.33333 0L18.6667 0C19.0203 0 19.3594 0.105357 19.6095 0.292893C19.8595 0.48043 20 0.734784 20 1V9C20 9.26522 19.8595 9.51957 19.6095 9.70711C19.3594 9.89464 19.0203 10 18.6667 10ZM13.8394 3.61625C13.6791 3.61248 13.5187 3.61582 13.3589 3.62625L13.3739 3.62542C13.3683 3.63792 13.675 4.45708 13.9661 5.22125L14.0017 5.31458C14.6206 6.93792 14.6206 6.93792 14.5222 7.09542C14.4396 7.22351 14.3066 7.32952 14.1411 7.39917L14.1367 7.40083L14.0083 7.44917L13.4561 7.45708C12.9228 7.46542 12.9017 7.46708 12.8339 7.50333C12.7072 7.57167 12.6589 7.68042 12.5622 8.11458C12.5122 8.34375 12.4733 8.52375 12.4733 8.53375C12.6087 8.55459 12.7475 8.55979 12.885 8.54917L12.8794 8.54958C12.9983 8.54958 13.1461 8.54958 13.3306 8.54708C13.6979 8.57187 14.0681 8.55331 14.4278 8.49208L14.4039 8.49542C14.9821 8.37065 15.4835 8.09753 15.8206 7.72375L15.8261 7.71708C15.9356 7.59792 18.7467 3.66208 18.7467 3.62792C18.5954 3.61207 18.4424 3.60802 18.29 3.61583L18.2967 3.61542H17.9667L17.1889 3.62L17.0411 3.675C16.9613 3.70317 16.8889 3.74184 16.8272 3.78917C16.79 3.8225 16.5339 4.2425 16.205 4.80792C16.0347 5.1416 15.8337 5.466 15.6033 5.77875L15.6306 5.73875C15.6183 5.71958 15.5094 5.21125 15.4206 4.78792C15.3167 4.28042 15.2172 3.84208 15.1983 3.81042C15.1632 3.74172 15.0936 3.68607 15.0044 3.65542L15.0022 3.65458C14.9183 3.62125 14.8783 3.62125 14.1472 3.615H13.84L13.8394 3.61625ZM11.745 3.67083C11.7211 3.67083 11.7161 3.68208 11.7106 3.70042C11.6956 3.75167 11.4783 4.68125 11.4783 4.69458C11.5017 4.71431 11.5296 4.73081 11.5606 4.74333L11.5622 4.74375C11.79 4.86083 11.9456 5.04583 11.9767 5.25917L11.9772 5.2625C11.9946 5.42763 11.934 5.59208 11.8059 5.72701C11.6778 5.86194 11.4904 5.95874 11.2767 6.00042L11.27 6.00167C11.1944 6.015 11.1644 6.02958 11.1572 6.05625C11.1378 6.12625 10.925 7.03833 10.925 7.05208C10.925 7.05458 10.9378 7.05833 11.0244 7.05833C11.0633 7.05833 11.1133 7.05833 11.1633 7.05542C11.6847 7.03384 12.1814 6.88189 12.5741 6.62382C12.9668 6.36575 13.2329 6.01645 13.33 5.63167L13.3322 5.62083C13.369 5.39803 13.3614 5.17235 13.3094 4.95125L13.3122 4.96458C13.2354 4.69315 13.0731 4.43944 12.8389 4.22461C12.6048 4.00978 12.3055 3.84005 11.9661 3.72958L11.9511 3.72542C11.8872 3.70082 11.8192 3.68274 11.7489 3.67167L11.7433 3.67083H11.745ZM2.31944 3.61417C2.22667 3.61417 1.98444 3.61417 1.97944 3.6175C1.97444 3.62083 1.96556 3.67167 1.94722 3.75083L1.87111 4.06667C1.81333 4.31167 1.77167 4.51417 1.77833 4.5175C1.785 4.52083 1.95611 4.5225 2.12333 4.5225H2.45444L2.44778 4.56042C2.44778 4.57125 2.42722 4.64833 2.40056 4.76417L2.29778 5.205C2.17354 5.54602 2.12512 5.90008 2.15444 6.25292L2.15389 6.24417C2.255 6.695 2.77278 6.98 3.61167 7.04625C3.72167 7.055 3.87056 7.05917 4.00111 7.05917C4.09951 7.06427 4.19836 7.05837 4.29444 7.04167L4.28778 7.0425C4.3 7.03125 4.51722 6.13333 4.52 6.08167C4.52 6.06 4.48167 6.05333 4.30556 6.045C3.87333 6.02708 3.68 5.92125 3.68 5.70208C3.68 5.63542 3.88389 4.71 3.93389 4.55083C3.94111 4.52625 3.95167 4.51958 4.17444 4.51958H4.51111C4.63932 4.52388 4.76778 4.5197 4.895 4.50708L4.88444 4.50792C4.89833 4.49042 5.09444 3.67458 5.09444 3.63333C5.09444 3.61792 4.98444 3.61375 4.62389 3.61375H4.15389L4.21333 3.36C4.32167 2.91708 4.29611 2.81 4.05889 2.72375C3.94 2.67917 3.93056 2.67917 3.41889 2.6725L2.88944 2.6675L2.87611 2.71375C2.86944 2.74042 2.82278 2.9325 2.77444 3.14292C2.72611 3.35333 2.67944 3.54292 2.67278 3.56875L2.65944 3.61542L2.31944 3.61417ZM5.65278 3.61083L5.63889 3.65708C5.61667 3.73458 4.85278 6.99625 4.85278 7.0125C5.109 7.02906 5.36632 7.03393 5.62333 7.02708L5.61278 7.0275H6.37333L6.39556 6.94C6.40944 6.89375 6.48444 6.57708 6.56333 6.2375C6.64111 5.90417 6.72833 5.57083 6.75333 5.50833C6.81672 5.33283 6.93774 5.17203 7.10535 5.04065C7.27295 4.90927 7.48179 4.81149 7.71278 4.75625L7.72278 4.75417C7.87272 4.72069 8.02954 4.70798 8.18556 4.71667H8.18167C8.45889 4.71667 8.47611 4.71458 8.48444 4.68333C8.50945 4.60208 8.73556 3.6125 8.73167 3.60292C8.67932 3.59041 8.62413 3.58602 8.56944 3.59H8.57111H8.55944C8.47056 3.59 8.38333 3.59542 8.29833 3.60583L8.30778 3.605C7.97625 3.65696 7.66898 3.77384 7.41722 3.94375L7.41889 3.9425C7.25667 4.055 7.11556 4.1825 6.99889 4.3225L6.99278 4.33042C6.9811 4.35291 6.96332 4.37335 6.94056 4.39042C6.94889 4.325 6.96111 4.26667 6.97722 4.20917L6.975 4.21917C7.06722 3.85042 7.01722 3.7225 6.75278 3.64792C6.55702 3.62307 6.35842 3.61316 6.16 3.61833H6.16444L5.65278 3.61083ZM11.0439 3.6H10.9656C10.8344 3.6 10.7061 3.60917 10.5817 3.62667L10.5944 3.625C10.2537 3.67692 9.93323 3.78622 9.65711 3.94466C9.38099 4.1031 9.15648 4.30653 9.00056 4.53958L8.99444 4.54958C8.82215 4.78373 8.73965 5.04909 8.75611 5.31625V5.31333L8.755 5.37125C8.755 5.48042 8.76833 5.58708 8.79333 5.69083L8.79111 5.68C8.8565 5.90875 8.98263 6.12529 9.16197 6.31671C9.34131 6.50813 9.5702 6.6705 9.835 6.79417L9.845 6.79833C9.99833 6.87208 10.1756 6.93375 10.3633 6.97625L10.3783 6.97917C10.3922 6.97167 10.4556 6.71542 10.5156 6.46542L10.6367 5.96L10.5794 5.92667C10.4308 5.84976 10.3096 5.74658 10.2267 5.62625L10.2239 5.62167C10.1511 5.5315 10.1222 5.42518 10.1422 5.32083L10.1417 5.32333C10.1244 5.22306 10.1499 5.12126 10.2144 5.0325L10.2128 5.035C10.3394 4.83917 10.5744 4.69542 10.8578 4.64708L10.8639 4.64625C10.9083 4.64292 10.9478 4.63333 10.9478 4.62458C10.9478 4.60208 11.17 3.66042 11.1822 3.62708C11.1739 3.60375 11.1433 3.6 11.0439 3.6Z" fill="black"/>
</g>
<defs>
<clipPath id="clip0_1192_3488">
<rect width="20" height="10" fill="white"/>
</clipPath>
</defs>
</svg>
