<svg width="23" height="23" viewBox="0 0 23 23" fill="none" xmlns="http://www.w3.org/2000/svg">
<path d="M11.5 21.5625C5.95125 21.5625 1.4375 17.0487 1.4375 11.5C1.4375 5.95125 5.95125 1.4375 11.5 1.4375C17.0487 1.4375 21.5625 5.95125 21.5625 11.5C21.5625 17.0487 17.0487 21.5625 11.5 21.5625ZM11.5 2.875C6.74188 2.875 2.875 6.74188 2.875 11.5C2.875 16.2581 6.74188 20.125 11.5 20.125C16.2581 20.125 20.125 16.2581 20.125 11.5C20.125 6.74188 16.2581 2.875 11.5 2.875Z" fill="black" fill-opacity="0.5"/>
<path d="M11.5 16.5312C11.0975 16.5312 10.7812 16.215 10.7812 15.8125V7.1875C10.7812 6.785 11.0975 6.46875 11.5 6.46875C11.9025 6.46875 12.2188 6.785 12.2188 7.1875V15.8125C12.2188 16.215 11.9025 16.5312 11.5 16.5312Z" fill="black" fill-opacity="0.5"/>
<path d="M15.8125 12.2188H7.1875C6.785 12.2188 6.46875 11.9025 6.46875 11.5C6.46875 11.0975 6.785 10.7812 7.1875 10.7812H15.8125C16.215 10.7812 16.5312 11.0975 16.5312 11.5C16.5312 11.9025 16.215 12.2188 15.8125 12.2188Z" fill="black" fill-opacity="0.5"/>
</svg>
