<svg width="57" height="57" viewBox="0 0 57 57" fill="none" xmlns="http://www.w3.org/2000/svg">
<path fill-rule="evenodd" clip-rule="evenodd" d="M15.6573 12.1463C16.8159 11.3722 18.1781 10.959 19.5715 10.959C20.4662 10.959 21.1914 11.6842 21.1914 12.5789C21.1914 13.4735 20.4662 14.1987 19.5715 14.1987C18.8188 14.1987 18.0831 14.4219 17.4572 14.8401C16.8314 15.2583 16.3436 15.8526 16.0556 16.548C15.7675 17.2434 15.6922 18.0086 15.839 18.7468C15.9859 19.4851 16.3483 20.1632 16.8805 20.6954C17.4128 21.2276 18.0909 21.5901 18.8291 21.7369C19.5673 21.8838 20.3325 21.8084 21.0279 21.5203C21.7233 21.2323 22.3176 20.7445 22.7358 20.1187C23.154 19.4929 23.3772 18.7571 23.3772 18.0044C23.3772 17.1098 24.1024 16.3845 24.9971 16.3845C25.8917 16.3845 26.6169 17.1098 26.6169 18.0044C26.6169 19.3978 26.2037 20.76 25.4296 21.9186C24.6554 23.0772 23.5551 23.9803 22.2677 24.5135C20.9803 25.0468 19.5637 25.1863 18.197 24.9144C16.8304 24.6426 15.575 23.9716 14.5897 22.9862C13.6044 22.0009 12.9334 20.7456 12.6615 19.3789C12.3897 18.0122 12.5292 16.5956 13.0624 15.3082C13.5957 14.0209 14.4987 12.9205 15.6573 12.1463Z" fill="black" fill-opacity="0.4"/>
<path fill-rule="evenodd" clip-rule="evenodd" d="M54.7667 20.3542C55.6485 20.3542 56.3633 21.0839 56.3633 21.984V35.6309C56.3633 42.6121 55.0129 47.923 51.5785 51.4486C48.1418 54.9764 42.9625 56.3641 36.1571 56.3641H20.2062C13.4029 56.3641 8.22369 54.9769 4.78655 51.4496C1.35151 47.9243 0 42.6134 0 35.6309V30.1439C0 29.2438 0.71481 28.5141 1.59657 28.5141C2.47834 28.5141 3.19315 29.2438 3.19315 30.1439V35.6309C3.19315 42.2952 4.50259 46.5361 7.05044 49.1508C9.59619 51.7634 13.7218 53.1045 20.2062 53.1045H36.1571C42.6436 53.1045 46.7691 51.7629 49.3143 49.1501C51.8617 46.5352 53.1701 42.2943 53.1701 35.6309V21.984C53.1701 21.0839 53.8849 20.3542 54.7667 20.3542Z" fill="black" fill-opacity="0.4"/>
<path fill-rule="evenodd" clip-rule="evenodd" d="M4.85299 4.81479C8.33584 1.35935 13.584 0 20.4828 0H31.2685C32.1577 0 32.8786 0.7152 32.8786 1.59744C32.8786 2.47969 32.1577 3.19489 31.2685 3.19489H20.4828C13.9017 3.19489 9.71356 4.51072 7.13004 7.07392C4.54651 9.63711 3.22023 13.7923 3.22023 20.3216C3.22023 21.2038 2.49936 21.9191 1.61012 21.9191C0.720874 21.9191 0 21.2038 0 20.3216C0 13.4771 1.37013 8.27023 4.85299 4.81479Z" fill="black" fill-opacity="0.4"/>
<path fill-rule="evenodd" clip-rule="evenodd" d="M36.0088 9.39328C36.0088 8.5286 36.7591 7.82764 37.6847 7.82764H53.1207C54.0462 7.82764 54.7965 8.5286 54.7965 9.39328C54.7965 10.258 54.0462 10.9589 53.1207 10.9589H37.6847C36.7591 10.9589 36.0088 10.258 36.0088 9.39328Z" fill="black" fill-opacity="0.4"/>
<path fill-rule="evenodd" clip-rule="evenodd" d="M45.4055 0C46.2702 0 46.9711 0.750318 46.9711 1.67588V17.1119C46.9711 18.0374 46.2702 18.7878 45.4055 18.7878C44.5408 18.7878 43.8398 18.0374 43.8398 17.1119V1.67588C43.8398 0.750318 44.5408 0 45.4055 0Z" fill="black" fill-opacity="0.4"/>
<path fill-rule="evenodd" clip-rule="evenodd" d="M43.9146 30.8035L32.834 40.3954L32.8046 40.4202C31.4575 41.5309 29.7672 42.1381 28.0228 42.1381C26.2784 42.1381 24.5881 41.5309 23.241 40.4202C23.2265 40.4083 23.2121 40.396 23.1981 40.3836L22.3427 39.6262C21.6264 39.0483 20.7466 38.7106 19.8278 38.6615C18.9034 38.6121 17.9872 38.8574 17.2105 39.362L4.06512 48.2592C3.33137 48.7558 2.33481 48.5623 1.83924 47.827C1.34368 47.0916 1.53677 46.093 2.27052 45.5963L15.4488 36.6769C16.7974 35.7955 18.3909 35.3669 19.9986 35.4528C21.6064 35.5388 23.1452 36.1349 24.3925 37.1551C24.4087 37.1683 24.4247 37.1819 24.4403 37.1958L25.2982 37.9553C26.0681 38.5823 27.0302 38.9249 28.0228 38.9249C29.0181 38.9249 29.9828 38.5804 30.7537 37.9501L41.8343 28.3582L41.8638 28.3334C43.2109 27.2227 44.9012 26.6155 46.6456 26.6155C48.39 26.6155 50.0803 27.2227 51.4274 28.3334L51.4569 28.3583L55.8069 32.1242C56.4769 32.7043 56.5509 33.7188 55.972 34.3903C55.3932 35.0617 54.3808 35.1358 53.7108 34.5558L49.3765 30.8035C48.6055 30.1731 47.6409 29.8287 46.6456 29.8287C45.6502 29.8287 44.6856 30.1732 43.9146 30.8035Z" fill="black" fill-opacity="0.4"/>
</svg>
