<svg width="20" height="18" viewBox="0 0 20 18" fill="none" xmlns="http://www.w3.org/2000/svg">
<path id="Vector" d="M10 0C4.475 0 1.45954e-06 4.12947 1.45954e-06 9.22787C-0.00113276 11.1651 0.658815 13.0534 1.88622 14.625C3.11362 16.1965 4.84615 17.3715 6.838 17.9833C7.338 18.0636 7.525 17.7867 7.525 17.544C7.525 17.3253 7.512 16.5991 7.512 15.8258C5 16.253 4.35 15.2611 4.15 14.7415C4.037 14.4758 3.55 13.6572 3.125 13.4376C2.775 13.2651 2.275 12.8378 3.112 12.8267C3.9 12.8147 4.462 13.4958 4.65 13.7726C5.55 15.1678 6.988 14.7757 7.562 14.5339C7.65 13.9341 7.912 13.5308 8.2 13.3001C5.975 13.0694 3.65 12.2731 3.65 8.74341C3.65 7.73941 4.037 6.90983 4.675 6.26296C4.575 6.03226 4.225 5.0864 4.775 3.81757C4.775 3.81757 5.612 3.5758 7.525 4.76435C8.33906 4.55586 9.18017 4.45092 10.025 4.45245C10.875 4.45245 11.725 4.5558 12.525 4.76343C14.437 3.5638 15.275 3.81849 15.275 3.81849C15.825 5.08732 15.475 6.03318 15.375 6.26388C16.012 6.90983 16.4 7.72834 16.4 8.74341C16.4 12.2851 14.063 13.0694 11.838 13.3001C12.2 13.588 12.513 14.1417 12.513 15.0073C12.513 16.2411 12.5 17.233 12.5 17.5449C12.5 17.7867 12.688 18.0746 13.188 17.9824C15.173 17.3639 16.8979 16.1866 18.1199 14.6162C19.3419 13.0457 19.9994 11.1612 20 9.22787C20 4.12947 15.525 0 10 0Z" fill="black" fill-opacity="0.4"/>
</svg>
