<svg width="47" height="46" viewBox="0 0 47 46" fill="none" xmlns="http://www.w3.org/2000/svg">
<rect width="46.1171" height="45.1146" rx="22.5573" transform="matrix(1 0 0 -1 0.75 45.6826)" fill="black"/>
<rect x="0.25" y="-0.25" width="45.6171" height="44.6146" rx="22.3073" transform="matrix(1 0 0 -1 0.75 45.1826)" stroke="black" stroke-opacity="0.7" stroke-width="0.5"/>
<path d="M29.6895 22.25H15.75C15.5511 22.25 15.3603 22.329 15.2197 22.4696C15.079 22.6103 15 22.8011 15 23C15 23.1989 15.079 23.3897 15.2197 23.5303C15.3603 23.671 15.5511 23.75 15.75 23.75H29.6895L24.219 29.219C24.0782 29.3598 23.9991 29.5508 23.9991 29.75C23.9991 29.9491 24.0782 30.1401 24.219 30.281C24.3598 30.4218 24.5508 30.5009 24.75 30.5009C24.9492 30.5009 25.1402 30.4218 25.281 30.281L32.031 23.531C32.1008 23.4613 32.1563 23.3785 32.1941 23.2874C32.2319 23.1963 32.2513 23.0986 32.2513 23C32.2513 22.9013 32.2319 22.8036 32.1941 22.7125C32.1563 22.6214 32.1008 22.5386 32.031 22.469L25.281 15.719C25.1402 15.5781 24.9492 15.499 24.75 15.499C24.5508 15.499 24.3598 15.5781 24.219 15.719C24.0782 15.8598 23.9991 16.0508 23.9991 16.25C23.9991 16.4491 24.0782 16.6401 24.219 16.781L29.6895 22.25Z" fill="white"/>
</svg>
