<svg width="20" height="20" viewBox="0 0 20 20" fill="none" xmlns="http://www.w3.org/2000/svg">
<g id="icon/linkedin">
<path id="Vector" d="M3.3335 7.2222H6.11127V16.6666H3.3335V7.2222ZM4.71405 6.11109H4.6985C3.86961 6.11109 3.3335 5.49331 3.3335 4.72165C3.3335 3.93331 3.88627 3.33331 4.73016 3.33331C5.57516 3.33331 6.09572 3.93331 6.11127 4.72165C6.11127 5.49276 5.57516 6.11109 4.71405 6.11109ZM16.6668 16.6666H13.8891V11.6116C13.8891 10.3905 13.2085 9.5572 12.1157 9.5572C11.2818 9.5572 10.8307 10.1194 10.6118 10.6628C10.5318 10.8572 10.5557 11.395 10.5557 11.6666V16.6666H7.77794V7.2222H10.5557V8.67553C10.9563 8.05553 11.5835 7.2222 13.1879 7.2222C15.1757 7.2222 16.6663 8.4722 16.6663 11.2633L16.6668 16.6666Z" fill="black" fill-opacity="0.4"/>
</g>
</svg>
