<svg width="21" height="16" viewBox="0 0 21 16" fill="none" xmlns="http://www.w3.org/2000/svg">
<g clip-path="url(#clip0_1192_3467)">
<path d="M3.81777 15.9203V14.8613C3.81777 14.4553 3.5656 14.1906 3.13338 14.1906C2.91731 14.1906 2.68319 14.2612 2.5211 14.4907C2.3951 14.2965 2.21504 14.1906 1.94491 14.1906C1.76477 14.1906 1.58479 14.2435 1.44066 14.4377V14.2259H1.0625V15.9203H1.44066V14.9848C1.44066 14.6848 1.60276 14.5436 1.85492 14.5436C2.10692 14.5436 2.23309 14.7024 2.23309 14.9848V15.9203H2.61125V14.9848C2.61125 14.6848 2.79123 14.5436 3.02534 14.5436C3.27751 14.5436 3.40351 14.7024 3.40351 14.9848V15.9203H3.81777ZM9.41812 14.2259H8.80592V13.714H8.42776V14.2259H8.08561V14.5612H8.42768V15.3378C8.42768 15.7262 8.58977 15.9556 9.02199 15.9556C9.18409 15.9556 9.36406 15.9027 9.49023 15.8321L9.38211 15.5143C9.27407 15.5849 9.14807 15.6026 9.058 15.6026C8.87795 15.6026 8.80592 15.4967 8.80592 15.3202V14.5612H9.41812V14.2259ZM12.6236 14.1905C12.4075 14.1905 12.2635 14.2965 12.1734 14.4377V14.2259H11.7952V15.9203H12.1734V14.9672C12.1734 14.6848 12.2994 14.526 12.5335 14.526C12.6055 14.526 12.6956 14.5436 12.7676 14.5612L12.8757 14.2083C12.8036 14.1906 12.6956 14.1906 12.6236 14.1906V14.1905ZM7.77947 14.3671C7.59932 14.2435 7.34724 14.1906 7.07711 14.1906C6.64497 14.1906 6.35688 14.4024 6.35688 14.7377C6.35688 15.0202 6.57295 15.179 6.95111 15.232L7.13117 15.2496C7.32928 15.2849 7.43731 15.3378 7.43731 15.4261C7.43731 15.5496 7.29327 15.6379 7.0411 15.6379C6.78902 15.6379 6.59091 15.5496 6.46483 15.4614L6.28477 15.7438C6.48288 15.885 6.75301 15.9556 7.02306 15.9556C7.5273 15.9556 7.81548 15.7262 7.81548 15.4084C7.81548 15.1084 7.58136 14.9495 7.22116 14.8966L7.0411 14.8789C6.87901 14.8612 6.75301 14.826 6.75301 14.7201C6.75301 14.5965 6.87901 14.526 7.07711 14.526C7.29327 14.526 7.50934 14.6142 7.61737 14.6671L7.77947 14.3671ZM17.8279 14.1906C17.6117 14.1906 17.4677 14.2965 17.3776 14.4377V14.2259H16.9995V15.9203H17.3776V14.9672C17.3776 14.6848 17.5037 14.526 17.7377 14.526C17.8098 14.526 17.8999 14.5436 17.9719 14.5612L18.08 14.2083C18.0079 14.1906 17.8999 14.1906 17.8279 14.1906ZM13.0017 15.0731C13.0017 15.5849 13.3619 15.9556 13.9202 15.9556C14.1722 15.9556 14.3523 15.9027 14.5324 15.7615L14.3523 15.4614C14.2083 15.5673 14.0642 15.6202 13.9021 15.6202C13.596 15.6202 13.3799 15.4084 13.3799 15.0731C13.3799 14.7554 13.596 14.5436 13.9021 14.526C14.0642 14.526 14.2083 14.5789 14.3523 14.6848L14.5324 14.3848C14.3523 14.2435 14.1722 14.1906 13.9202 14.1906C13.3619 14.1906 13.0017 14.5612 13.0017 15.0731ZM16.4953 15.0731V14.2259H16.1171V14.4377C15.991 14.2789 15.811 14.1906 15.5769 14.1906C15.0907 14.1906 14.7125 14.5612 14.7125 15.0731C14.7125 15.5849 15.0907 15.9556 15.5769 15.9556C15.8289 15.9556 16.0091 15.8674 16.1171 15.7085V15.9203H16.4953V15.0731ZM15.1086 15.0731C15.1086 14.773 15.3067 14.526 15.6308 14.526C15.937 14.526 16.1531 14.7554 16.1531 15.0731C16.1531 15.3731 15.937 15.6202 15.6308 15.6202C15.3067 15.6025 15.1086 15.3731 15.1086 15.0731ZM10.5887 14.1906C10.0845 14.1906 9.72426 14.5436 9.72426 15.0731C9.72426 15.6026 10.0844 15.9556 10.6067 15.9556C10.8588 15.9556 11.1109 15.885 11.309 15.7262L11.1289 15.4614C10.9848 15.5673 10.8048 15.6379 10.6247 15.6379C10.3906 15.6379 10.1565 15.532 10.1024 15.2319H11.381V15.0908C11.3991 14.5436 11.075 14.1906 10.5887 14.1906ZM10.5887 14.5083C10.8227 14.5083 10.9849 14.6495 11.0208 14.9143H10.1205C10.1565 14.6848 10.3186 14.5083 10.5887 14.5083ZM19.9708 15.0731V13.5552H19.5926V14.4377C19.4665 14.2789 19.2865 14.1906 19.0524 14.1906C18.5662 14.1906 18.188 14.5612 18.188 15.0731C18.188 15.5849 18.5662 15.9556 19.0524 15.9556C19.3045 15.9556 19.4846 15.8674 19.5926 15.7085V15.9203H19.9708V15.0731ZM18.5842 15.0731C18.5842 14.773 18.7822 14.526 19.1064 14.526C19.4126 14.526 19.6286 14.7554 19.6286 15.0731C19.6286 15.3731 19.4126 15.6202 19.1064 15.6202C18.7822 15.6025 18.5842 15.3731 18.5842 15.0731ZM5.94262 15.0731V14.2259H5.56446V14.4377C5.43838 14.2789 5.25832 14.1906 5.0242 14.1906C4.538 14.1906 4.15984 14.5612 4.15984 15.0731C4.15984 15.5849 4.538 15.9556 5.0242 15.9556C5.27636 15.9556 5.45642 15.8674 5.56446 15.7085V15.9203H5.94262V15.0731ZM4.538 15.0731C4.538 14.773 4.73611 14.526 5.06021 14.526C5.36635 14.526 5.5825 14.7554 5.5825 15.0731C5.5825 15.3731 5.36635 15.6202 5.06021 15.6202C4.73611 15.6025 4.538 15.3731 4.538 15.0731Z" fill="black"/>
<path d="M7.65234 1.35889H13.3248V11.3489H7.65234V1.35889Z" fill="#FF5F00"/>
<path d="M8.01355 6.35409C8.01355 4.32434 8.98595 2.52398 10.4806 1.35904C9.38216 0.511839 7.99559 0 6.48293 0C2.89923 0 0 2.84165 0 6.35409C0 9.86645 2.89923 12.7082 6.48285 12.7082C7.9955 12.7082 9.38208 12.1963 10.4806 11.3491C8.98595 10.2018 8.01355 8.38384 8.01355 6.35409Z" fill="#EB001B"/>
<path d="M20.9806 6.35409C20.9806 9.86645 18.0813 12.7082 14.4977 12.7082C12.9851 12.7082 11.5985 12.1963 10.5 11.3491C12.0127 10.1842 12.9671 8.38384 12.9671 6.35409C12.9671 4.32434 11.9946 2.52398 10.5 1.35904C11.5984 0.511839 12.9851 0 14.4977 0C18.0813 0 20.9806 2.85934 20.9806 6.35409Z" fill="#F79E1B"/>
</g>
<defs>
<clipPath id="clip0_1192_3467">
<rect width="21" height="16" fill="white"/>
</clipPath>
</defs>
</svg>
