<svg width="16" height="16" viewBox="0 0 16 16" fill="none" xmlns="http://www.w3.org/2000/svg">
<g clip-path="url(#clip0_1192_3566)">
<path d="M13.5747 1.24563C12.7038 0.404199 11.1296 0.043457 9.11566 0.043457H3.27066C3.0714 0.0434633 2.87868 0.103724 2.72714 0.213405C2.57561 0.323086 2.4752 0.474993 2.44397 0.641815L0.0102219 13.7262C-0.0381531 13.9842 0.197534 14.2178 0.506034 14.2178H4.11453L5.02078 9.34518L4.99266 9.49776C5.05722 9.15334 5.40472 8.8993 5.81622 8.8993H7.53097C10.8996 8.8993 13.5373 7.73946 14.3078 4.38428C14.3307 4.28505 14.3505 4.18846 14.3676 4.09411C14.2703 4.05045 14.2703 4.05045 14.3676 4.09411C14.597 2.854 14.366 2.00987 13.5747 1.24563Z" fill="#27346A"/>
<path d="M6.40154 3.64738C6.50019 3.60756 6.60808 3.58692 6.71735 3.58698H11.2997C11.8423 3.58698 12.3485 3.61691 12.811 3.68001C12.9404 3.69751 13.0691 3.71839 13.197 3.74264C13.3783 3.77654 13.5575 3.81804 13.7339 3.86698C13.9613 3.93135 14.173 4.00632 14.3677 4.09411C14.597 2.85352 14.366 2.00987 13.5747 1.24563C12.7033 0.404199 11.1296 0.043457 9.11566 0.043457H3.27016C2.8586 0.043457 2.50847 0.297444 2.44397 0.641815L0.0102222 13.7257C-0.0381528 13.9841 0.197535 14.2174 0.505535 14.2174H4.11453L5.99472 4.11042C6.01321 4.01108 6.05989 3.91703 6.13076 3.83637C6.20162 3.75571 6.29455 3.69085 6.40154 3.64738Z" fill="#27346A"/>
<path d="M14.3074 4.38392C13.5369 7.73862 10.8992 8.89894 7.53054 8.89894H5.81529C5.4038 8.89894 5.05623 9.15298 4.9923 9.49741L3.86486 15.5559C3.82273 15.7817 4.02873 15.9864 4.29823 15.9864H7.34011C7.51436 15.9863 7.68287 15.9336 7.81535 15.8376C7.94782 15.7417 8.03556 15.6088 8.06279 15.4629L8.09242 15.3315L8.66573 12.2515L8.70267 12.0812C8.7299 11.9354 8.81763 11.8025 8.95009 11.7065C9.08256 11.6106 9.25106 11.5579 9.42529 11.5578H9.88054C12.8272 11.5578 15.1345 10.543 15.8088 7.60813C16.0902 6.38164 15.9446 5.35764 15.2001 4.63839C14.9743 4.42053 14.6939 4.24061 14.3672 4.09375C14.3495 4.18858 14.3303 4.28469 14.3074 4.38392Z" fill="#2790C3"/>
<path d="M13.5602 3.82156C13.4401 3.79183 13.3188 3.7655 13.1966 3.74262C13.0687 3.71877 12.9399 3.69803 12.8106 3.68043C12.3476 3.6169 11.8418 3.58692 11.2987 3.58692H6.71688C6.60753 3.58671 6.49955 3.60752 6.40106 3.64779C6.29396 3.69113 6.20093 3.75595 6.13003 3.83663C6.05913 3.91732 6.01251 4.01144 5.99419 4.11084L5.02031 9.34517L4.99219 9.49775C5.05625 9.15333 5.40375 8.89929 5.81531 8.89929H7.53056C10.8992 8.89929 13.5368 7.73945 14.3073 4.38427C14.3302 4.28504 14.3495 4.18888 14.3672 4.09409C14.1721 4.00678 13.9609 3.93134 13.7334 3.86739C13.676 3.85127 13.6183 3.83599 13.5603 3.82156" fill="#1F264F"/>
</g>
<defs>
<clipPath id="clip0_1192_3566">
<rect width="16" height="16" fill="white"/>
</clipPath>
</defs>
</svg>
