<svg width="39" height="33" viewBox="0 0 39 33" fill="none" xmlns="http://www.w3.org/2000/svg">
<path d="M27.8984 0.375C24.4299 0.375 21.393 1.86656 19.5 4.38777C17.607 1.86656 14.5701 0.375 11.1016 0.375C8.34054 0.378112 5.69349 1.4763 3.74115 3.42865C1.7888 5.38099 0.690612 8.02804 0.6875 10.7891C0.6875 22.5469 18.121 32.064 18.8634 32.457C19.0591 32.5623 19.2778 32.6174 19.5 32.6174C19.7222 32.6174 19.9409 32.5623 20.1366 32.457C20.879 32.064 38.3125 22.5469 38.3125 10.7891C38.3094 8.02804 37.2112 5.38099 35.2589 3.42865C33.3065 1.4763 30.6595 0.378112 27.8984 0.375ZM19.5 29.7359C16.4329 27.9487 3.375 19.8073 3.375 10.7891C3.37767 8.74067 4.19257 6.77694 5.641 5.3285C7.08944 3.88007 9.05317 3.06517 11.1016 3.0625C14.3686 3.0625 17.1115 4.80266 18.257 7.59766C18.3583 7.84411 18.5305 8.05491 18.7518 8.20326C18.9731 8.35162 19.2336 8.43083 19.5 8.43083C19.7664 8.43083 20.0269 8.35162 20.2482 8.20326C20.4695 8.05491 20.6417 7.84411 20.743 7.59766C21.8885 4.79762 24.6314 3.0625 27.8984 3.0625C29.9468 3.06517 31.9106 3.88007 33.359 5.3285C34.8074 6.77694 35.6223 8.74067 35.625 10.7891C35.625 19.7939 22.5637 27.9471 19.5 29.7359Z" fill="black" fill-opacity="0.7"/>
</svg>
