<svg width="26" height="25" viewBox="0 0 26 25" fill="none" xmlns="http://www.w3.org/2000/svg">
<path d="M22.5266 17.1816C21.9629 16.248 21.125 13.6064 21.125 10.1562C21.125 8.08425 20.269 6.09711 18.7453 4.63198C17.2216 3.16685 15.1549 2.34375 13 2.34375C10.8452 2.34375 8.77853 3.16685 7.2548 4.63198C5.73107 6.09711 4.87504 8.08425 4.87504 10.1562C4.87504 13.6074 4.03614 16.248 3.47247 17.1816C3.32852 17.419 3.25221 17.6886 3.25123 17.9634C3.25025 18.2381 3.32463 18.5083 3.46688 18.7466C3.60912 18.9849 3.8142 19.1829 4.06143 19.3206C4.30866 19.4584 4.5893 19.5311 4.87504 19.5312H9.01981C9.20727 20.4132 9.70579 21.2059 10.4311 21.7752C11.1563 22.3444 12.0638 22.6554 13 22.6554C13.9363 22.6554 14.8438 22.3444 15.569 21.7752C16.2943 21.2059 16.7928 20.4132 16.9803 19.5312H21.125C21.4107 19.5309 21.6912 19.4581 21.9383 19.3203C22.1854 19.1824 22.3903 18.9844 22.5324 18.7462C22.6746 18.5079 22.7489 18.2378 22.7478 17.9631C22.7468 17.6885 22.6705 17.4189 22.5266 17.1816ZM13 21.0938C12.4961 21.0936 12.0046 20.9433 11.5932 20.6635C11.1818 20.3836 10.8707 19.9881 10.7027 19.5312H15.2974C15.1294 19.9881 14.8183 20.3836 14.4069 20.6635C13.9955 20.9433 13.504 21.0936 13 21.0938ZM4.87504 17.9688C5.65707 16.6758 6.50004 13.6797 6.50004 10.1562C6.50004 8.49865 7.18486 6.90894 8.40385 5.73683C9.62284 4.56473 11.2761 3.90625 13 3.90625C14.724 3.90625 16.3773 4.56473 17.5962 5.73683C18.8152 6.90894 19.5 8.49865 19.5 10.1562C19.5 13.6768 20.341 16.6729 21.125 17.9688H4.87504Z" fill="black" fill-opacity="0.7"/>
</svg>
