<svg width="23" height="23" viewBox="0 0 23 23" fill="none" xmlns="http://www.w3.org/2000/svg">
<path d="M11.4993 2.2998C7.68849 2.2998 4.59925 5.38904 4.59925 9.1998V13.3235L3.78608 14.1366C3.45718 14.4655 3.35879 14.9602 3.53679 15.3899C3.71479 15.8196 4.13412 16.0998 4.59925 16.0998H18.3993C18.8644 16.0998 19.2837 15.8196 19.4617 15.3899C19.6397 14.9602 19.5413 14.4655 19.2124 14.1366L18.3993 13.3235V9.1998C18.3993 5.38904 15.31 2.2998 11.4993 2.2998Z" fill="white"/>
<path d="M11.4992 20.6998C9.59384 20.6998 8.04922 19.1552 8.04922 17.2498H14.9492C14.9492 19.1552 13.4046 20.6998 11.4992 20.6998Z" fill="white"/>
</svg>
