<svg width="19" height="19" viewBox="0 0 19 19" fill="none" xmlns="http://www.w3.org/2000/svg">
<path d="M13.676 14.349L13.3396 14.0125C13.2208 13.8938 13.0791 13.8344 12.9145 13.8344C12.7498 13.8344 12.6078 13.8938 12.4885 14.0125C12.3698 14.1313 12.3104 14.2698 12.3104 14.4281C12.3104 14.5865 12.3698 14.725 12.4885 14.8438L13.2604 15.6156C13.3792 15.7344 13.5177 15.7938 13.676 15.7938C13.8344 15.7938 13.9729 15.7344 14.0917 15.6156L16.0115 13.7354C16.1302 13.6167 16.1896 13.4747 16.1896 13.3095C16.1896 13.1443 16.1302 13.0026 16.0115 12.8844C15.8927 12.7656 15.7507 12.7063 15.5855 12.7063C15.4203 12.7063 15.2786 12.7656 15.1604 12.8844L13.676 14.349ZM13.4583 7.125C13.6826 7.125 13.8708 7.049 14.0228 6.897C14.1748 6.745 14.2505 6.55711 14.25 6.33333C14.25 6.10903 14.174 5.92088 14.022 5.76888C13.87 5.61688 13.6821 5.54114 13.4583 5.54167H5.54167C5.31736 5.54167 5.12921 5.61767 4.97721 5.76967C4.82521 5.92167 4.74947 6.10956 4.75 6.33333C4.75 6.55764 4.826 6.74579 4.978 6.89779C5.13 7.04979 5.31789 7.12553 5.54167 7.125H13.4583ZM14.25 18.2083C13.1549 18.2083 12.2215 17.8223 11.4499 17.0501C10.6783 16.278 10.2922 15.3446 10.2917 14.25C10.2917 13.1549 10.6777 12.2212 11.4499 11.4491C12.222 10.6769 13.1554 10.2911 14.25 10.2917C15.3451 10.2917 16.2788 10.6777 17.0509 11.4499C17.8231 12.222 18.2089 13.1554 18.2083 14.25C18.2083 15.3451 17.8223 16.2788 17.0501 17.0509C16.278 17.8231 15.3446 18.2089 14.25 18.2083ZM3.95833 2.375H15.0417C15.4771 2.375 15.85 2.53017 16.1603 2.8405C16.4706 3.15083 16.6255 3.52345 16.625 3.95833V9.24271C16.2556 9.05799 15.8695 8.92261 15.4668 8.83658C15.0641 8.75056 14.6585 8.70781 14.25 8.70833H5.54167C5.31736 8.70833 5.12921 8.78434 4.97721 8.93634C4.82521 9.08834 4.74947 9.27622 4.75 9.5C4.75 9.72431 4.826 9.91246 4.978 10.0645C5.13 10.2165 5.31789 10.2922 5.54167 10.2917H10.3708C10.1465 10.516 9.93885 10.7601 9.74779 11.024C9.55674 11.2878 9.38837 11.5715 9.24271 11.875H5.54167C5.31736 11.875 5.12921 11.951 4.97721 12.103C4.82521 12.255 4.74947 12.4429 4.75 12.6667C4.75 12.891 4.826 13.0791 4.978 13.2311C5.13 13.3831 5.31789 13.4589 5.54167 13.4583H8.76771C8.74132 13.5903 8.72469 13.7191 8.71783 13.8447C8.71097 13.9703 8.70781 14.1054 8.70833 14.25C8.70833 14.8042 8.78433 15.3354 8.93633 15.8436C9.08833 16.3519 9.3158 16.8366 9.61875 17.2979C9.55278 17.3111 9.48337 17.3011 9.41054 17.2678C9.33771 17.2346 9.27517 17.1918 9.22292 17.1396L8.58958 16.5063C8.51042 16.4271 8.41806 16.3875 8.3125 16.3875C8.20694 16.3875 8.11458 16.4271 8.03542 16.5063L7.40208 17.1396C7.32292 17.2188 7.23056 17.2583 7.125 17.2583C7.01944 17.2583 6.92708 17.2188 6.84792 17.1396L6.21458 16.5063C6.13542 16.4271 6.04306 16.3875 5.9375 16.3875C5.83194 16.3875 5.73958 16.4271 5.66042 16.5063L5.02708 17.1396C4.94792 17.2188 4.85556 17.2583 4.75 17.2583C4.64444 17.2583 4.55208 17.2188 4.47292 17.1396L3.83958 16.5063C3.76042 16.4271 3.66806 16.3875 3.5625 16.3875C3.45694 16.3875 3.36458 16.4271 3.28542 16.5063L2.65208 17.1396L2.375 17.3177V3.95833C2.375 3.52292 2.53017 3.15004 2.8405 2.83971C3.15083 2.52938 3.52344 2.37447 3.95833 2.375Z" fill="white"/>
</svg>
