<svg width="9" height="9" viewBox="0 0 9 9" fill="none" xmlns="http://www.w3.org/2000/svg">
<path fill-rule="evenodd" clip-rule="evenodd" d="M0 1.375C0 1.01033 0.144866 0.660591 0.402728 0.402728C0.660591 0.144866 1.01033 0 1.375 0H6.875C7.23967 0 7.58941 0.144866 7.84727 0.402728C8.10513 0.660591 8.25 1.01033 8.25 1.375V6.875C8.25 7.23967 8.10513 7.58941 7.84727 7.84727C7.58941 8.10513 7.23967 8.25 6.875 8.25H1.375C1.01033 8.25 0.660591 8.10513 0.402728 7.84727C0.144866 7.58941 0 7.23967 0 6.875V1.375ZM4.58333 2.29167C4.58333 2.17011 4.53504 2.05353 4.44909 1.96758C4.36314 1.88162 4.24656 1.83333 4.125 1.83333C4.00344 1.83333 3.88686 1.88162 3.80091 1.96758C3.71496 2.05353 3.66667 2.17011 3.66667 2.29167V5.95833C3.66667 6.07989 3.71496 6.19647 3.80091 6.28242C3.88686 6.36838 4.00344 6.41667 4.125 6.41667C4.24656 6.41667 4.36314 6.36838 4.44909 6.28242C4.53504 6.19647 4.58333 6.07989 4.58333 5.95833V2.29167ZM2.75 3.66667C2.75 3.54511 2.70171 3.42853 2.61576 3.34258C2.5298 3.25662 2.41322 3.20833 2.29167 3.20833C2.17011 3.20833 2.05353 3.25662 1.96758 3.34258C1.88162 3.42853 1.83333 3.54511 1.83333 3.66667V5.95833C1.83333 6.07989 1.88162 6.19647 1.96758 6.28242C2.05353 6.36838 2.17011 6.41667 2.29167 6.41667C2.41322 6.41667 2.5298 6.36838 2.61576 6.28242C2.70171 6.19647 2.75 6.07989 2.75 5.95833V3.66667ZM6.41667 5.04167C6.41667 4.92011 6.36838 4.80353 6.28242 4.71758C6.19647 4.63162 6.07989 4.58333 5.95833 4.58333C5.83678 4.58333 5.7202 4.63162 5.63424 4.71758C5.54829 4.80353 5.5 4.92011 5.5 5.04167V5.95833C5.5 6.07989 5.54829 6.19647 5.63424 6.28242C5.7202 6.36838 5.83678 6.41667 5.95833 6.41667C6.07989 6.41667 6.19647 6.36838 6.28242 6.28242C6.36838 6.19647 6.41667 6.07989 6.41667 5.95833V5.04167Z" fill="black" fill-opacity="0.89"/>
</svg>
