<svg width="21" height="21" viewBox="0 0 21 21" fill="none" xmlns="http://www.w3.org/2000/svg">
<path d="M19.6875 7.71094C19.6875 13.4531 11.1735 18.101 10.8109 18.293C10.7153 18.3444 10.6085 18.3713 10.5 18.3713C10.3915 18.3713 10.2847 18.3444 10.1891 18.293C9.82652 18.101 1.3125 13.4531 1.3125 7.71094C1.31402 6.36253 1.85035 5.06978 2.80382 4.11632C3.75728 3.16285 5.05003 2.62652 6.39844 2.625C8.09238 2.625 9.57551 3.35344 10.5 4.58473C11.4245 3.35344 12.9076 2.625 14.6016 2.625C15.95 2.62652 17.2427 3.16285 18.1962 4.11632C19.1497 5.06978 19.686 6.36253 19.6875 7.71094Z" fill="white"/>
</svg>
