<svg width="26" height="26" viewBox="0 0 26 26" fill="none" xmlns="http://www.w3.org/2000/svg">
<path d="M13 8.12492C12.0359 8.12492 11.0933 8.41084 10.2916 8.94651C9.48995 9.48218 8.86511 10.2436 8.49613 11.1343C8.12716 12.0251 8.03062 13.0053 8.21872 13.951C8.40682 14.8966 8.87112 15.7653 9.5529 16.4471C10.2347 17.1289 11.1033 17.5932 12.049 17.7813C12.9946 17.9694 13.9748 17.8728 14.8656 17.5038C15.7564 17.1349 16.5178 16.51 17.0535 15.7083C17.5891 14.9066 17.875 13.9641 17.875 12.9999C17.8737 11.7074 17.3597 10.4682 16.4457 9.55426C15.5318 8.64032 14.2926 8.12627 13 8.12492ZM13 16.2499C12.3573 16.2499 11.7289 16.0593 11.1944 15.7022C10.66 15.3451 10.2434 14.8375 9.99744 14.2436C9.75145 13.6498 9.68709 12.9963 9.81249 12.3659C9.9379 11.7354 10.2474 11.1563 10.7019 10.7018C11.1565 10.2473 11.7356 9.93777 12.366 9.81237C12.9964 9.68697 13.6499 9.75133 14.2438 9.99732C14.8376 10.2433 15.3452 10.6599 15.7023 11.1943C16.0594 11.7288 16.25 12.3571 16.25 12.9999C16.25 13.8619 15.9076 14.6885 15.2981 15.298C14.6887 15.9075 13.862 16.2499 13 16.2499ZM21.9375 13.2193C21.9416 13.073 21.9416 12.9268 21.9375 12.7805L23.4529 10.8874C23.5323 10.788 23.5873 10.6714 23.6134 10.5468C23.6395 10.4223 23.636 10.2933 23.6032 10.1704C23.3548 9.23663 22.9832 8.34008 22.4982 7.50438C22.4347 7.39501 22.3465 7.30198 22.2407 7.23269C22.1349 7.16339 22.0144 7.11975 21.8888 7.10524L19.4797 6.83711C19.3795 6.73149 19.278 6.62992 19.175 6.53242L18.8907 4.11727C18.876 3.99155 18.8322 3.87098 18.7628 3.76518C18.6933 3.65938 18.6001 3.57128 18.4905 3.50789C17.6545 3.02379 16.758 2.65257 15.8245 2.40391C15.7015 2.3712 15.5725 2.36786 15.448 2.39414C15.3234 2.42043 15.2068 2.47561 15.1075 2.55524L13.2194 4.06242C13.0732 4.06242 12.9269 4.06242 12.7807 4.06242L10.8875 2.55016C10.7881 2.4707 10.6715 2.41571 10.5469 2.3896C10.4224 2.36349 10.2935 2.367 10.1705 2.39985C9.2369 2.6487 8.34041 3.02027 7.5045 3.50485C7.39513 3.56835 7.3021 3.6565 7.23281 3.7623C7.16352 3.86809 7.11988 3.98859 7.10536 4.11422L6.83723 6.52735C6.73161 6.62823 6.63005 6.72979 6.53255 6.83203L4.11739 7.1093C3.99167 7.12393 3.8711 7.16772 3.7653 7.2372C3.65951 7.30667 3.5714 7.3999 3.50802 7.50946C3.02391 8.34548 2.65269 9.24195 2.40403 10.1755C2.37132 10.2985 2.36798 10.4275 2.39426 10.552C2.42055 10.6766 2.47573 10.7932 2.55536 10.8925L4.06255 12.7805C4.06255 12.9268 4.06255 13.073 4.06255 13.2193L2.55028 15.1124C2.47083 15.2118 2.41583 15.3285 2.38972 15.453C2.36361 15.5776 2.36712 15.7065 2.39997 15.8295C2.64838 16.7632 3.01998 17.6598 3.50497 18.4955C3.56847 18.6048 3.65663 18.6979 3.76242 18.7672C3.86821 18.8365 3.98871 18.8801 4.11434 18.8946L6.52341 19.1627C6.62429 19.2684 6.72585 19.3699 6.82809 19.4674L7.10942 21.8826C7.12405 22.0083 7.16784 22.1289 7.23732 22.2347C7.30679 22.3405 7.40002 22.4286 7.50958 22.492C8.3456 22.9761 9.24207 23.3473 10.1756 23.5959C10.2986 23.6286 10.4276 23.632 10.5521 23.6057C10.6767 23.5794 10.7933 23.5242 10.8926 23.4446L12.7807 21.9374C12.9269 21.9415 13.0732 21.9415 13.2194 21.9374L15.1125 23.4527C15.2119 23.5322 15.3286 23.5872 15.4532 23.6133C15.5777 23.6394 15.7066 23.6359 15.8296 23.603C16.7633 23.3546 17.6599 22.983 18.4956 22.4981C18.605 22.4345 18.698 22.3464 18.7673 22.2406C18.8366 22.1348 18.8802 22.0143 18.8947 21.8887L19.1629 19.4796C19.2685 19.3794 19.37 19.2778 19.4675 19.1749L21.8827 18.8905C22.0084 18.8759 22.129 18.8321 22.2348 18.7627C22.3406 18.6932 22.4287 18.5999 22.4921 18.4904C22.9762 17.6544 23.3474 16.7579 23.5961 15.8244C23.6288 15.7014 23.6321 15.5724 23.6058 15.4478C23.5795 15.3233 23.5244 15.2067 23.4447 15.1073L21.9375 13.2193ZM20.3024 12.5591C20.3197 12.8527 20.3197 13.1471 20.3024 13.4407C20.2903 13.6417 20.3533 13.8401 20.4791 13.9973L21.9203 15.798C21.7549 16.3235 21.5432 16.8333 21.2875 17.3214L18.9922 17.5814C18.7923 17.6036 18.6078 17.6991 18.4743 17.8495C18.2788 18.0694 18.0705 18.2776 17.8507 18.4731C17.7003 18.6066 17.6047 18.7912 17.5825 18.9911L17.3276 21.2844C16.8396 21.5401 16.3298 21.7519 15.8042 21.9171L14.0025 20.4759C13.8583 20.3607 13.6792 20.2981 13.4947 20.2982H13.4459C13.1523 20.3155 12.8579 20.3155 12.5643 20.2982C12.3633 20.2861 12.165 20.3491 12.0078 20.4749L10.202 21.9171C9.67645 21.7517 9.16663 21.54 8.67856 21.2844L8.41856 18.9921C8.39637 18.7922 8.30084 18.6077 8.15044 18.4741C7.93056 18.2786 7.72234 18.0704 7.52684 17.8505C7.39332 17.7001 7.20877 17.6046 7.00887 17.5824L4.71559 17.3265C4.45985 16.8385 4.2481 16.3286 4.08286 15.8031L5.52403 14.0013C5.64987 13.8441 5.71285 13.6458 5.70075 13.4448C5.68348 13.1512 5.68348 12.8568 5.70075 12.5632C5.71285 12.3622 5.64987 12.1639 5.52403 12.0066L4.08286 10.2019C4.24823 9.67632 4.45997 9.16651 4.71559 8.67844L7.00786 8.41844C7.20775 8.39625 7.39231 8.30072 7.52583 8.15032C7.72133 7.93044 7.92955 7.72222 8.14942 7.52672C8.30042 7.39311 8.39635 7.20813 8.41856 7.00774L8.67348 4.71547C9.16149 4.45973 9.67132 4.24798 10.1969 4.08274L11.9986 5.52391C12.1559 5.64975 12.3542 5.71273 12.5552 5.70063C12.8488 5.68336 13.1432 5.68336 13.4368 5.70063C13.6378 5.71273 13.8361 5.64975 13.9933 5.52391L15.7981 4.08274C16.3236 4.24811 16.8335 4.45985 17.3215 4.71547L17.5815 7.00774C17.6037 7.20763 17.6993 7.39218 17.8497 7.52571C18.0695 7.7212 18.2778 7.92943 18.4732 8.1493C18.6068 8.2997 18.7913 8.39524 18.9912 8.41742L21.2845 8.67235C21.5402 9.16036 21.752 9.67019 21.9172 10.1958L20.4761 11.9975C20.349 12.156 20.286 12.3564 20.2993 12.5591H20.3024Z" fill="black" fill-opacity="0.7"/>
</svg>
