<svg width="18" height="18" viewBox="0 0 18 18" fill="none" xmlns="http://www.w3.org/2000/svg">
<path d="M6.71845 15.3497C7.29646 15.3497 7.76503 14.8812 7.76503 14.3032C7.76503 13.7252 7.29646 13.2566 6.71845 13.2566C6.14044 13.2566 5.67188 13.7252 5.67188 14.3032C5.67188 14.8812 6.14044 15.3497 6.71845 15.3497Z" fill="black"/>
<path d="M14.0446 15.3497C14.6226 15.3497 15.0912 14.8812 15.0912 14.3032C15.0912 13.7252 14.6226 13.2566 14.0446 13.2566C13.4666 13.2566 12.998 13.7252 12.998 14.3032C12.998 14.8812 13.4666 15.3497 14.0446 15.3497Z" fill="black"/>
<path d="M15.9031 4.64804C15.8296 4.55811 15.7369 4.48569 15.632 4.43602C15.527 4.38635 15.4122 4.36068 15.2961 4.36088H5.34213L5.14165 3.22338C5.12027 3.10222 5.05688 2.99246 4.96262 2.91339C4.86836 2.83432 4.74925 2.79099 4.62621 2.79102H2.53305C2.39427 2.79102 2.26117 2.84615 2.16303 2.94428C2.0649 3.04242 2.00977 3.17552 2.00977 3.3143C2.00977 3.45309 2.0649 3.58619 2.16303 3.68433C2.26117 3.78246 2.39427 3.83759 2.53305 3.83759H4.1873L5.68064 12.3011C5.70201 12.4223 5.7654 12.5321 5.85966 12.6111C5.95393 12.6902 6.07304 12.7335 6.19608 12.7335H14.5687C14.7075 12.7335 14.8406 12.6784 14.9387 12.5802C15.0369 12.4821 15.092 12.349 15.092 12.2102C15.092 12.0714 15.0369 11.9383 14.9387 11.8402C14.8406 11.7421 14.7075 11.6869 14.5687 11.6869H6.63498L6.45052 10.6403H14.3541C14.5356 10.6401 14.7114 10.5772 14.8519 10.4622C14.9923 10.3473 15.0887 10.1873 15.1247 10.0095L16.0666 5.29986C16.0893 5.18588 16.0864 5.06828 16.0581 4.95556C16.0299 4.84284 15.9769 4.7378 15.9031 4.64804Z" fill="black"/>
</svg>
