<svg width="3" height="22" viewBox="0 0 3 22" fill="none" xmlns="http://www.w3.org/2000/svg">
<path d="M3 10.8996C3 11.223 2.91203 11.5391 2.7472 11.808C2.58238 12.0768 2.34811 12.2864 2.07402 12.4101C1.79994 12.5339 1.49834 12.5662 1.20736 12.5032C0.916393 12.4401 0.649119 12.2844 0.43934 12.0557C0.229562 11.8271 0.0867006 11.5357 0.0288228 11.2186C-0.0290551 10.9014 0.000649929 10.5727 0.114181 10.274C0.227713 9.97522 0.419972 9.71987 0.666646 9.54022C0.91332 9.36057 1.20333 9.26469 1.5 9.26469C1.89783 9.26469 2.27936 9.43694 2.56066 9.74355C2.84196 10.0502 3 10.466 3 10.8996ZM1.5 3.26989C1.79667 3.26989 2.08668 3.174 2.33336 2.99435C2.58003 2.8147 2.77229 2.55936 2.88582 2.26061C2.99935 1.96186 3.02906 1.63313 2.97118 1.31598C2.9133 0.998835 2.77044 0.707516 2.56066 0.478865C2.35088 0.250214 2.08361 0.0945004 1.79264 0.0314157C1.50166 -0.031669 1.20006 0.000708399 0.925976 0.124453C0.651887 0.248199 0.417618 0.457754 0.252796 0.726619C0.0879739 0.995484 8.0917e-07 1.31158 8.0917e-07 1.63495C8.0917e-07 2.06856 0.158036 2.48441 0.43934 2.79103C0.720645 3.09764 1.10218 3.26989 1.5 3.26989ZM1.5 18.5294C1.20333 18.5294 0.91332 18.6253 0.666646 18.8049C0.419972 18.9846 0.227713 19.2399 0.114181 19.5386C0.000649929 19.8374 -0.0290551 20.1661 0.0288228 20.4833C0.0867006 20.8004 0.229562 21.0917 0.43934 21.3204C0.649119 21.549 0.916393 21.7048 1.20736 21.7678C1.49834 21.8309 1.79994 21.7985 2.07402 21.6748C2.34811 21.5511 2.58238 21.3415 2.7472 21.0726C2.91203 20.8038 3 20.4877 3 20.1643C3 19.7307 2.84196 19.3148 2.56066 19.0082C2.27936 18.7016 1.89783 18.5294 1.5 18.5294Z" fill="black" fill-opacity="0.7"/>
</svg>
