<svg width="10" height="11" viewBox="0 0 10 11" fill="none" xmlns="http://www.w3.org/2000/svg">
<path fill-rule="evenodd" clip-rule="evenodd" d="M3.20768 2.5075V2C3.20768 1.50272 3.39664 1.02581 3.73298 0.674175C4.06932 0.322544 4.5255 0.125 5.00116 0.125C5.47682 0.125 5.933 0.322544 6.26934 0.674175C6.60568 1.02581 6.79464 1.50272 6.79464 2V2.5075C7.41016 2.527 7.78703 2.596 8.07447 2.8455C8.47286 3.1915 8.57807 3.7765 8.78803 4.947L9.14673 6.947C9.44181 8.593 9.58912 9.416 9.15916 9.958C8.72873 10.5 7.92764 10.5 6.32594 10.5H3.67638C2.0742 10.5 1.2736 10.5 0.843162 9.958C0.412727 9.416 0.560988 8.593 0.855596 6.947L1.21429 4.947C1.42473 3.777 1.52947 3.1915 1.92786 2.8455C2.21529 2.596 2.59216 2.527 3.20768 2.5075ZM3.92507 2C3.92507 1.70163 4.03845 1.41548 4.24025 1.2045C4.44206 0.993526 4.71577 0.875 5.00116 0.875C5.28656 0.875 5.56026 0.993526 5.76207 1.2045C5.96388 1.41548 6.07725 1.70163 6.07725 2V2.5H3.92507V2Z" fill="black" fill-opacity="0.89"/>
</svg>
