<svg width="26" height="26" viewBox="0 0 26 26" fill="none" xmlns="http://www.w3.org/2000/svg">
<path d="M21.9375 4.875H4.0625C3.84701 4.875 3.64035 4.9606 3.48798 5.11298C3.3356 5.26535 3.25 5.47201 3.25 5.6875C3.25 5.90299 3.3356 6.10965 3.48798 6.26202C3.64035 6.4144 3.84701 6.5 4.0625 6.5H4.875V21.125C4.875 21.556 5.0462 21.9693 5.35095 22.274C5.6557 22.5788 6.06902 22.75 6.5 22.75H19.5C19.931 22.75 20.3443 22.5788 20.649 22.274C20.9538 21.9693 21.125 21.556 21.125 21.125V6.5H21.9375C22.153 6.5 22.3597 6.4144 22.512 6.26202C22.6644 6.10965 22.75 5.90299 22.75 5.6875C22.75 5.47201 22.6644 5.26535 22.512 5.11298C22.3597 4.9606 22.153 4.875 21.9375 4.875ZM19.5 21.125H6.5V6.5H19.5V21.125ZM8.125 2.4375C8.125 2.22201 8.2106 2.01535 8.36298 1.86298C8.51535 1.7106 8.72201 1.625 8.9375 1.625H17.0625C17.278 1.625 17.4847 1.7106 17.637 1.86298C17.7894 2.01535 17.875 2.22201 17.875 2.4375C17.875 2.65299 17.7894 2.85965 17.637 3.01202C17.4847 3.1644 17.278 3.25 17.0625 3.25H8.9375C8.72201 3.25 8.51535 3.1644 8.36298 3.01202C8.2106 2.85965 8.125 2.65299 8.125 2.4375Z" fill="black" fill-opacity="0.7"/>
</svg>
