<svg width="20" height="20" viewBox="0 0 20 20" fill="none" xmlns="http://www.w3.org/2000/svg">
<g id="icon/twitter">
<path id="Vector" d="M18.0284 3.35922C17.3493 3.68005 16.1934 4.28172 15.6126 4.39672C15.5901 4.40255 15.5718 4.41005 15.5501 4.41588C14.8726 3.74755 13.9443 3.33338 12.9168 3.33338C10.8459 3.33338 9.16677 5.01255 9.16677 7.08338C9.16677 7.19255 9.15761 7.39338 9.16677 7.50005C6.48511 7.50005 4.52677 6.10088 3.06094 4.30255C2.86511 4.06088 2.65677 4.18672 2.61344 4.35838C2.51594 4.74672 2.48261 5.39588 2.48261 5.85922C2.48261 7.02672 3.39511 8.17338 4.81594 8.88422C4.55427 8.95172 4.26594 9.00005 3.96594 9.00005C3.61261 9.00005 3.20594 8.90755 2.85011 8.72088C2.71844 8.65172 2.43427 8.67088 2.51844 9.00755C2.85594 10.3567 4.39594 11.3042 5.77177 11.58C5.45927 11.7642 4.79261 11.7267 4.48594 11.7267C4.37261 11.7267 3.97844 11.7 3.72344 11.6684C3.49094 11.64 3.13344 11.7 3.43261 12.1534C4.07511 13.1259 5.52844 13.7367 6.77927 13.76C5.62761 14.6634 3.74427 14.9934 1.94011 14.9934C1.57511 14.9851 1.59344 15.4009 1.88761 15.555C3.21844 16.2534 5.39844 16.6667 6.95594 16.6667C13.1476 16.6667 16.6668 11.9475 16.6668 7.49922C16.6668 7.42755 16.6651 7.27755 16.6626 7.12672C16.6626 7.11172 16.6668 7.09755 16.6668 7.08255C16.6668 7.06005 16.6601 7.03838 16.6601 7.01588C16.6576 6.90255 16.6551 6.79672 16.6526 6.74172C17.1434 6.38755 17.8951 5.77255 18.2751 5.30172C18.4043 5.14172 18.3001 4.94755 18.1243 5.00838C17.6718 5.16588 16.8893 5.47088 16.3993 5.52922C17.3801 4.88005 17.8651 4.31505 18.2818 3.68755C18.4243 3.47338 18.2459 3.25588 18.0284 3.35922Z" fill="black" fill-opacity="0.4"/>
</g>
</svg>
