<svg width="11" height="6" viewBox="0 0 11 6" fill="none" xmlns="http://www.w3.org/2000/svg">
<path fill-rule="evenodd" clip-rule="evenodd" d="M6.875 1.2C6.4953 1.2 6.1875 0.931371 6.1875 0.6C6.1875 0.268629 6.4953 0 6.875 0H10.3125C10.6922 0 11 0.268629 11 0.6V3.6C11 3.93137 10.6922 4.2 10.3125 4.2C9.9328 4.2 9.625 3.93137 9.625 3.6V2.04853L6.67364 4.62426C6.40515 4.85858 5.96985 4.85858 5.70136 4.62426L4.125 3.24853L1.17364 5.82426C0.905151 6.05858 0.46985 6.05858 0.201364 5.82426C-0.0671214 5.58995 -0.0671214 5.21005 0.201364 4.97574L3.63886 1.97574C3.90735 1.74142 4.34265 1.74142 4.61114 1.97574L6.1875 3.35147L8.65273 1.2H6.875Z" fill="#0DC30A"/>
</svg>
