<svg width="26" height="26" viewBox="0 0 26 26" fill="none" xmlns="http://www.w3.org/2000/svg">
<path d="M23.4527 21.5313C21.906 18.8572 19.5223 16.9397 16.7405 16.0307C18.1165 15.2116 19.1856 13.9634 19.7835 12.4778C20.3815 10.9923 20.4753 9.35155 20.0505 7.80755C19.6257 6.26355 18.7058 4.90168 17.4321 3.93108C16.1584 2.96048 14.6013 2.43481 12.9999 2.43481C11.3986 2.43481 9.84148 2.96048 8.56778 3.93108C7.29408 4.90168 6.3742 6.26355 5.94941 7.80755C5.52462 9.35155 5.6184 10.9923 6.21636 12.4778C6.81432 13.9634 7.88339 15.2116 9.25939 16.0307C6.4776 16.9387 4.09392 18.8562 2.54713 21.5313C2.4904 21.6238 2.45278 21.7267 2.43647 21.834C2.42017 21.9413 2.42551 22.0507 2.45219 22.1559C2.47887 22.2611 2.52634 22.3598 2.59181 22.4463C2.65727 22.5329 2.7394 22.6054 2.83336 22.6597C2.92731 22.7139 3.03118 22.7488 3.13884 22.7623C3.2465 22.7758 3.35577 22.7676 3.4602 22.7381C3.56462 22.7087 3.6621 22.6586 3.74687 22.5909C3.83164 22.5232 3.90199 22.4392 3.95377 22.3438C5.8672 19.037 9.24924 17.0626 12.9999 17.0626C16.7506 17.0626 20.1327 19.037 22.0461 22.3438C22.0979 22.4392 22.1682 22.5232 22.253 22.5909C22.3378 22.6586 22.4353 22.7087 22.5397 22.7381C22.6441 22.7676 22.7534 22.7758 22.861 22.7623C22.9687 22.7488 23.0726 22.7139 23.1665 22.6597C23.2605 22.6054 23.3426 22.5329 23.4081 22.4463C23.4735 22.3598 23.521 22.2611 23.5477 22.1559C23.5744 22.0507 23.5797 21.9413 23.5634 21.834C23.5471 21.7267 23.5095 21.6238 23.4527 21.5313ZM7.31244 9.75008C7.31244 8.6252 7.646 7.52558 8.27096 6.59027C8.89591 5.65497 9.78417 4.92599 10.8234 4.49551C11.8627 4.06504 13.0062 3.95241 14.1095 4.17186C15.2128 4.39131 16.2262 4.933 17.0216 5.72841C17.817 6.52382 18.3587 7.53723 18.5782 8.6405C18.7976 9.74377 18.685 10.8873 18.2545 11.9266C17.824 12.9658 17.095 13.8541 16.1597 14.4791C15.2244 15.104 14.1248 15.4376 12.9999 15.4376C11.492 15.436 10.0463 14.8362 8.98005 13.77C7.91379 12.7037 7.31405 11.258 7.31244 9.75008Z" fill="black" fill-opacity="0.7"/>
</svg>
